<?xml version="1.0" standalone="no"?>
<!DOCTYPE svg PUBLIC "-//W3C//DTD SVG 20010904//EN"
 "http://www.w3.org/TR/2001/REC-SVG-20010904/DTD/svg10.dtd">
<svg version="1.0" xmlns="http://www.w3.org/2000/svg"
 width="798.000000pt" height="798.000000pt" viewBox="0 0 798.000000 798.000000"
 preserveAspectRatio="xMidYMid meet">
<metadata>
Created by potrace 1.14, written by Peter Selinger 2001-2017
</metadata>
<g transform="translate(0.000000,798.000000) scale(0.100000,-0.100000)"
fill="#000000" stroke="none">
<path d="M623 4729 c-169 -37 -281 -98 -398 -214 -137 -136 -205 -306 -211
-520 -6 -218 55 -393 192 -551 55 -65 163 -148 243 -189 100 -50 130 -55 363
-55 196 0 222 2 270 21 65 25 75 34 39 35 -50 2 -79 33 -157 172 l-76 137 -82
0 c-133 0 -237 51 -320 155 -106 132 -110 332 -10 477 44 64 137 136 192 148
9 2 32 8 50 14 46 14 169 7 222 -13 118 -44 213 -143 249 -262 17 -53 20 -95
21 -309 0 -137 5 -268 10 -292 24 -105 93 -200 184 -253 46 -26 63 -30 126
-30 l72 0 -5 458 c-5 476 -5 486 -51 612 -32 85 -88 172 -160 243 -40 40 -79
77 -87 82 -88 61 -175 100 -290 131 -94 24 -282 26 -386 3z m920 -988 c22 -37
23 -91 2 -91 -31 0 -71 101 -49 123 10 10 30 -3 47 -32z m-19 -164 c19 -25 36
-93 28 -115 -6 -20 -27 -14 -60 18 -42 39 -64 84 -58 118 2 15 5 31 5 35 1 13
63 -28 85 -56z m-166 6 c25 -21 40 -73 22 -73 -17 0 -70 56 -70 74 0 21 23 20
48 -1z m87 -165 c68 -35 101 -82 112 -161 l5 -39 -33 7 c-59 12 -133 54 -162
92 -29 39 -52 107 -41 124 9 14 67 3 119 -23z"/>
<path d="M4088 4538 c-2 -7 -3 -71 -3 -143 l1 -130 -50 -5 -51 -5 0 -83 c-1
-46 3 -86 9 -89 5 -3 27 -6 50 -7 l41 -1 0 -335 1 -335 102 -3 102 -3 1 48 c0
26 1 179 2 338 l2 290 60 0 60 0 0 90 0 90 -63 3 -63 3 2 102 c1 56 1 121 0
145 l-1 42 -99 0 c-70 0 -100 -4 -103 -12z"/>
<path d="M7210 4537 c-1 -24 -1 -1102 -1 -1120 1 -16 11 -17 103 -15 l102 3 0
193 c0 105 2 192 5 192 3 -1 69 -88 146 -195 l140 -194 138 -1 139 0 -40 50
c-46 57 -71 89 -214 261 l-105 126 22 31 c12 17 31 44 43 59 40 54 198 268
221 301 l22 32 -120 0 -120 0 -70 -102 c-39 -57 -74 -107 -78 -113 -5 -5 -33
-47 -63 -92 -30 -46 -57 -83 -60 -83 -4 0 -6 152 -5 339 l0 338 -102 2 c-76 1
-103 -2 -103 -12z"/>
<path d="M2395 4276 c-161 -40 -281 -163 -320 -329 -54 -229 39 -442 234 -535
67 -32 81 -35 160 -35 47 1 93 3 101 5 47 13 114 51 154 88 l46 43 0 -57 0
-56 94 0 93 0 -1 428 -1 427 -92 3 -93 3 0 -63 0 -63 -31 38 c-77 93 -215 134
-344 103z m208 -200 c136 -49 200 -218 137 -365 -56 -128 -210 -180 -340 -113
-51 25 -108 82 -114 113 -2 8 -6 26 -10 41 -21 74 -5 170 39 236 56 85 185
124 288 88z"/>
<path d="M6046 4279 c-81 -13 -186 -71 -245 -135 -60 -65 -86 -111 -108 -197
-43 -167 -1 -321 119 -440 95 -94 182 -130 318 -132 260 -4 468 211 456 472
-14 284 -257 478 -540 432z m168 -201 c59 -18 129 -91 151 -157 36 -108 5
-225 -77 -295 -123 -106 -319 -58 -384 93 -25 58 -25 150 0 213 29 70 61 106
121 134 56 27 124 31 189 12z"/>
<path d="M7028 4280 c-43 -13 -82 -39 -105 -73 l-23 -32 0 43 0 42 -95 0 -95
0 0 -430 0 -430 103 0 104 0 0 270 1 270 26 54 c28 56 61 81 121 89 l30 4 3
101 c3 101 2 102 -20 101 -13 0 -35 -4 -50 -9z"/>
<path d="M3126 3993 c0 -148 4 -293 8 -323 10 -70 54 -166 94 -207 111 -114
330 -120 440 -12 l32 31 0 -41 0 -41 94 0 94 0 -1 428 -2 427 -100 0 -100 0
-2 -259 c-3 -263 -8 -307 -42 -362 -54 -88 -221 -85 -274 6 -29 49 -37 131
-37 375 l0 245 -103 0 -102 0 1 -267z"/>
<path d="M4487 4163 c19 -54 39 -109 43 -123 4 -14 31 -88 60 -165 29 -77 53
-144 54 -150 1 -5 14 -41 29 -80 14 -38 40 -109 58 -157 l31 -88 63 0 c52 0
65 3 69 18 28 96 113 385 133 451 l26 83 43 -148 c24 -82 60 -207 80 -277 l37
-128 65 3 65 3 153 425 c85 234 154 426 154 428 0 1 -49 2 -108 2 l-109 0 -62
-207 c-34 -115 -70 -232 -80 -262 l-17 -54 -34 124 c-19 68 -36 131 -37 139
-2 8 -18 69 -37 135 l-33 120 -81 2 -82 2 -9 -37 c-6 -20 -22 -80 -36 -132
-14 -52 -35 -129 -46 -170 -11 -41 -27 -100 -36 -130 l-16 -55 -13 45 c-15 54
-63 214 -110 368 l-35 112 -109 0 -109 0 36 -97z"/>
<path d="M768 4149 c27 -70 -25 -147 -103 -154 -5 -1 -22 2 -37 6 -28 8 -28 7
-28 -40 0 -63 35 -128 89 -166 38 -27 51 -30 116 -30 66 0 77 3 116 31 117 85
118 252 3 336 -31 23 -56 31 -103 35 l-62 6 9 -24z"/>
<path d="M1643 3678 c-22 -24 -32 -68 -15 -68 19 0 43 40 40 65 l-3 27 -22
-24z"/>
<path d="M1660 3583 c-36 -34 -50 -93 -22 -93 27 0 62 42 69 84 7 44 -5 46
-47 9z"/>
<path d="M1760 3540 c-17 -17 -20 -25 -11 -28 17 -6 45 22 39 39 -3 9 -11 6
-28 -11z"/>
<path d="M1732 3463 c-32 -6 -102 -76 -102 -101 0 -18 5 -20 45 -16 25 2 61
14 80 27 33 21 70 79 58 91 -7 6 -44 6 -81 -1z"/>
<path d="M1649 3282 c-46 -31 -51 -52 -11 -52 35 0 91 37 92 61 0 13 -59 7
-81 -9z"/>
</g>
</svg>
