<svg width="40" height="40" viewBox="0 0 40 40" fill="none" xmlns="http://www.w3.org/2000/svg">
<g clip-path="url(#clip0)">
<path d="M37.015 33.1041H2.99277C1.34401 33.1041 0 31.7679 0 30.1113V9.88865C0 8.23207 1.34401 6.89587 2.99277 6.89587H37.0072C38.6638 6.89587 40 8.23989 40 9.88865V30.1113C40.0078 31.7679 38.6638 33.1041 37.015 33.1041Z" fill="#FFE15A"/>
<path d="M2.99277 6.89587C1.34401 6.89587 0 8.23207 0 9.88865V30.1113C0 31.7679 1.34401 33.1041 2.99277 33.1041H13.3307V6.89587H2.99277Z" fill="#464655"/>
<path d="M37.015 6.89587H26.6692V33.1041H37.0071C38.6637 33.1041 39.9999 31.7601 39.9999 30.1113V9.88865C40.0077 8.23207 38.6637 6.89587 37.015 6.89587Z" fill="#FF4B55"/>
</g>
<defs>
<clipPath id="clip0">
<rect width="40" height="40" fill="white"/>
</clipPath>
</defs>
</svg>
