<svg width="40" height="40" viewBox="0 0 40 40" fill="none" xmlns="http://www.w3.org/2000/svg">
<g clip-path="url(#clip0)">
<path d="M1.07031 7.59778C0.416094 8.14739 0 8.97106 0 9.89231V30.1079C0 31.029 0.416094 31.8528 1.07031 32.4023L20 20L1.07031 7.59778Z" fill="#41479B"/>
<path d="M1.07031 32.4023C1.59102 32.8397 2.26234 33.1034 2.99563 33.1034H37.0042C38.6587 33.1034 39.9999 31.7623 39.9999 30.1077V20H20L1.07031 32.4023Z" fill="#FF4B55"/>
<path d="M37.0043 6.89655H2.99575C2.26247 6.89655 1.59106 7.16045 1.07043 7.59772L20 20H40.0001V9.89225C40.0001 8.23772 38.6589 6.89655 37.0043 6.89655Z" fill="white"/>
</g>
<defs>
<clipPath id="clip0">
<rect width="40" height="40" fill="white"/>
</clipPath>
</defs>
</svg>
