<svg width="64" height="64" viewBox="0 0 64 64" fill="none" xmlns="http://www.w3.org/2000/svg">
<g clip-path="url(#clip0)">
<path d="M62.0293 22.0733C56.8447 5.51208 39.1576 -3.74302 22.5931 1.43947C6.0308 6.62408 -3.22543 24.3154 1.95819 40.8766L3.99343 40.2391C-0.839432 24.8005 7.78992 8.30745 23.2306 3.47359C30.7106 1.13347 38.6544 1.84559 45.596 5.47796C52.5407 9.11245 57.654 15.2319 59.9952 22.7109C62.3353 30.1898 61.6242 38.1325 57.9908 45.0763C54.3585 52.021 48.239 57.1342 40.759 59.4755C28.2394 63.3935 14.5162 58.4456 7.37843 47.441L5.58943 48.601C11.4894 57.6994 21.5878 62.9384 32.0561 62.9372C35.1692 62.9372 38.3175 62.4745 41.3955 61.5086C49.4181 58.9979 55.9823 53.5126 59.8801 46.0646C63.7778 38.6165 64.5401 30.096 62.0293 22.0733Z" fill="#37B14F"/>
<path d="M25.815 14.926L26.427 12.8832L15.7656 9.68485C15.3925 9.57185 14.9841 9.67423 14.7059 9.95248L12.5736 12.0847C12.3252 12.3331 12.2154 12.6881 12.2794 13.0336C12.3434 13.379 12.5736 13.6701 12.8945 13.813L22.4897 18.0775L23.3555 16.1286L15.1794 12.4941L15.7636 11.9098L25.815 14.926Z" fill="#37B14F"/>
<path d="M35.7183 8.57516C35.7183 7.98666 35.2416 7.50903 34.6521 7.50903C34.651 7.50903 34.651 7.50903 34.65 7.50903C32.3045 7.50903 30.0987 8.42266 28.4398 10.0817L19.399 19.1214L15.7198 18.2013C15.3563 18.1106 14.9724 18.2161 14.7069 18.4816L12.5747 20.6139C12.3423 20.8463 12.2293 21.1725 12.2698 21.4978C12.3103 21.8229 12.4979 22.1129 12.7794 22.2814L17.8819 25.3433L20.9438 30.4457C21.1123 30.7272 21.4012 30.9149 21.7274 30.9554C21.77 30.9607 21.8138 30.9629 21.8575 30.9629C22.1379 30.9629 22.4098 30.852 22.6124 30.6516L24.7447 28.5194C25.009 28.2539 25.1157 27.8701 25.025 27.5065L24.106 23.8315L33.2908 14.7374C34.8579 13.0965 35.7204 10.9409 35.7183 8.57516ZM22.173 22.7419C21.9054 23.0063 21.7978 23.3923 21.8884 23.7579L22.8085 27.4371L22.0687 28.177L19.5728 24.017C19.4822 23.8666 19.3574 23.7409 19.2072 23.6514L15.0472 21.1555L15.7871 20.4156L19.4663 21.3358C19.8298 21.4264 20.2137 21.3209 20.4792 21.0554L29.9464 11.5882C30.9273 10.6063 32.1618 9.96978 33.5009 9.7384C33.2898 11.0562 32.6895 12.2779 31.7684 13.2428L22.173 22.7419Z" fill="#37B14F"/>
<path d="M33.5402 27.6001L30.3418 16.8003L28.297 17.4059L31.3023 27.5534L30.6552 28.1249L27.1007 19.8794L25.1422 20.7238L29.2788 30.319C29.4142 30.6325 29.6915 30.8628 30.0251 30.9374C30.103 30.9544 30.1807 30.963 30.2586 30.963C30.5156 30.963 30.7671 30.8703 30.9633 30.6965L33.2236 28.7029C33.5348 28.4285 33.6574 27.9989 33.5402 27.6001Z" fill="#37B14F"/>
<path d="M20.8255 58.7857C13.2326 62.3838 7.27607 62.8487 4.48708 60.0608C-0.346787 55.227 4.90283 41.1829 16.6974 27.3914L15.0769 26.0054C2.14058 41.1316 -2.83503 55.7557 2.97858 61.5683C4.60233 63.191 6.89557 64.0002 9.73994 64.0002C13.0556 64.0002 17.1197 62.9011 21.7382 60.7122L20.8255 58.7857Z" fill="#37B14F"/>
<path d="M56.915 36.8562C56.7295 36.5097 56.3682 36.2933 55.9747 36.2933H52.369L49.4649 30.4861C49.2837 30.1247 48.9148 29.8965 48.5107 29.8965H37.8493C37.2597 29.8965 36.7832 30.3741 36.7832 30.9626V39.4917C36.7832 40.0813 37.2598 40.5578 37.8493 40.5578H41.0477V52.2853C41.0477 52.8749 41.5242 53.3514 42.1138 53.3514H47.4444C47.7269 53.3514 47.9978 53.2394 48.1993 53.0379L52.4638 48.7734C52.6642 48.5741 52.7762 48.3033 52.7762 48.0197V44.0782L56.8615 37.9501C57.0791 37.6238 57.1005 37.2027 56.915 36.8562ZM50.822 43.1646C50.7058 43.3395 50.6429 43.5462 50.6429 43.7563V47.5794L47.0032 51.2192H43.1801H43.1789V39.4917C43.1789 38.9021 42.7024 38.4256 42.1128 38.4256H38.9144V32.0289H47.8508L50.7549 37.8361C50.9362 38.1975 51.305 38.4257 51.709 38.4257H53.982L50.822 43.1646Z" fill="#37B14F"/>
<path d="M57.6584 27.7644L53.7009 20.8388C53.5111 20.5062 53.1571 20.3014 52.7755 20.3014H46.3788C46.0226 20.3014 45.69 20.4794 45.4918 20.7758L43.6761 23.4998H41.0481V18.1692H46.3788C46.6624 18.1692 46.9321 18.0572 47.1325 17.8568L51.0846 13.9047H55.9739V11.7725H50.6432C50.3596 11.7725 50.0899 11.8845 49.8895 12.0848L45.9374 16.037H39.982C39.3924 16.037 38.9159 16.5146 38.9159 17.1031V24.5659C38.9159 25.1544 39.3925 25.6321 39.982 25.6321H44.2465C44.6026 25.6321 44.9353 25.4541 45.1335 25.1577L46.9491 22.4337H52.1572L56.1147 29.3593C56.3045 29.6919 56.6585 29.8967 57.0401 29.8967H61.3046V27.7644H57.6584Z" fill="#37B14F"/>
<path d="M31.4527 38.4257H25.4973L22.6113 35.5397C22.4119 35.3392 22.1401 35.2273 21.8576 35.2273H16.5269C15.9384 35.2273 15.4608 35.7039 15.4608 36.2934V43.7563C15.4608 44.3459 15.9384 44.8224 16.5269 44.8224H20.7914V55.4838C20.7914 55.8879 21.0196 56.2568 21.3811 56.4379C21.5314 56.5125 21.6956 56.5499 21.8577 56.5499C22.0837 56.5499 22.3087 56.4785 22.4973 56.3366L26.7618 53.1383C27.0304 52.9368 27.1883 52.6201 27.1883 52.2854V49.5988L32.1192 45.6551C32.3718 45.4527 32.5189 45.1466 32.5189 44.8225V39.4919C32.5188 38.9023 32.0412 38.4257 31.4527 38.4257ZM30.3865 44.3108L25.4557 48.2544C25.2031 48.457 25.0559 48.7629 25.0559 49.087V51.7524L22.9237 53.3516V43.7564C22.9237 43.1668 22.4461 42.6903 21.8576 42.6903H17.5931V37.3597H21.4162L24.3022 40.2457C24.5016 40.446 24.7734 40.558 25.0559 40.558H30.3865V44.3108Z" fill="#37B14F"/>
<path d="M9.97744 22.9508L6.77907 17.6202C6.5872 17.2993 6.23957 17.103 5.86545 17.103H4.79932V19.2353H5.26207L7.72169 23.3345L5.11182 25.9444C4.91132 26.1438 4.79945 26.4156 4.79945 26.6981V29.8965H1.60083V32.0288H5.86532C6.45382 32.0288 6.93145 31.5511 6.93145 30.9626V27.1395L9.81744 24.2535C10.1629 23.907 10.2291 23.3708 9.97744 22.9508Z" fill="#37B14F"/>
<path d="M33.586 1.11108V2.41171L30.1285 3.27633C30.0102 3.3062 29.8972 3.35633 29.7959 3.42345L27.1124 5.21245L21.2689 2.29021L20.3148 4.19745L26.7116 7.39582C26.8619 7.47045 27.0251 7.50782 27.1882 7.50782C27.395 7.50782 27.6008 7.44707 27.7788 7.3287L30.8237 5.29883L34.9102 4.27745C35.3845 4.15908 35.7183 3.7327 35.7183 3.24333V1.11108H33.586Z" fill="#37B14F"/>
</g>
<defs>
<clipPath id="clip0">
<rect width="64" height="64" fill="white"/>
</clipPath>
</defs>
</svg>
