<svg width="26" height="18" viewBox="0 0 26 18" fill="none" xmlns="http://www.w3.org/2000/svg">
<path d="M24.8536 8.64661L17.3535 1.1465C17.1582 0.951167 16.8418 0.951167 16.6465 1.1465C16.4512 1.34183 16.4512 1.65824 16.6465 1.85352L23.2931 8.50013L1.49978 8.50013C1.2234 8.50013 0.999756 8.72377 0.999756 9.00015C0.999756 9.27653 1.2234 9.50017 1.49978 9.50017L23.2931 9.50017L16.6465 16.1467C16.4512 16.3421 16.4512 16.6585 16.6465 16.8538C16.7441 16.9514 16.8721 17.0002 17 17.0002C17.128 17.0002 17.2559 16.9514 17.3536 16.8538L24.8537 9.35364C25.049 9.15836 25.049 8.84195 24.8536 8.64661Z" fill="#439D55" stroke="#439D55"/>
</svg>
