<svg width="280" height="236" viewBox="0 0 280 236" fill="none" xmlns="http://www.w3.org/2000/svg">
<g opacity="0.1">
<path fill-rule="evenodd" clip-rule="evenodd" d="M166.025 139.292C171.618 138.616 175.011 131.563 173.646 126.67C167.451 129.618 165.262 132.749 166.025 139.292ZM88.0343 73.939C98.8894 73.939 107.689 82.7175 107.689 93.5463C107.689 104.375 98.8894 113.154 88.0343 113.154C77.1793 113.154 68.3795 104.375 68.3795 93.5463C68.3795 92.1346 68.5304 90.7582 68.8144 89.4312C70.3953 90.2917 72.2086 90.781 74.1363 90.781C80.2811 90.781 85.2623 85.8118 85.2623 79.6818C85.2623 77.7587 84.772 75.9499 83.9092 74.3728C85.2395 74.0895 86.6192 73.939 88.0343 73.939ZM177.27 137.098C179.928 137.268 182.119 134.285 181.911 131.893C178.775 132.726 177.485 133.991 177.27 137.098ZM165.953 127.457C169.583 126.659 171.364 121.812 170.156 118.685C166.275 121.012 165.036 123.207 165.953 127.457ZM164.41 162.523C168.809 164.836 174.824 161.419 176.298 157.184C170.318 156.217 167.152 157.392 164.41 162.523ZM165.843 152.528C175.13 153.248 183.014 149.088 184.414 140.933C174.846 139.214 167.081 145.29 165.843 152.528Z" fill="#439D55"/>
<path fill-rule="evenodd" clip-rule="evenodd" d="M122.962 160.364C73.771 186.045 12.4901 151.038 12.4901 93.5464C12.4901 -4.69437 161.636 -6.05617 163.559 92.0451C163.884 117.666 163.569 143.269 163.569 168.889C140.172 166.846 127.393 150.898 126.464 131.618V94.2529C126.468 94.0178 126.471 93.7824 126.471 93.5464C126.471 72.3697 109.262 55.2026 88.0342 55.2026C66.8062 55.2026 49.5975 72.3697 49.5975 93.5464C49.5975 117.873 71.947 135.869 95.6175 131.142L109.048 154.883C110.399 157.619 112.868 159.791 116.045 160.673C118.417 161.332 120.823 161.172 122.962 160.364ZM143.354 137.081C138.593 135.563 135.52 131.904 136.48 127.569C141.582 128.647 144.208 133.235 143.354 137.081ZM158.928 124.252C153.918 120.933 151.566 115.689 154.106 110.986C159.658 113.908 161.185 120.08 158.928 124.252ZM158.533 143.121C150.403 139.288 145.791 132.036 148.532 124.531C157.376 127.66 160.97 136.462 158.533 143.121ZM159.728 164.463C146.519 162.603 136.784 154.352 137.357 142.515C150.309 143.029 160.397 150.806 159.728 164.463Z" fill="#439D55"/>
<path d="M39.2643 189.103H33.6965V192.654H33.6053C31.7797 189.786 28.9501 188.283 25.3448 188.283C18.3623 188.283 12.7947 194.02 12.7947 201.941C12.7947 210.091 18.7275 215.144 25.1622 215.144C26.4858 215.144 30.6845 214.917 33.6053 210.91H33.6965V214.325H39.2643V189.103ZM26.3033 194.02C30.6845 194.02 33.5595 197.298 33.5595 201.668C33.5595 206.267 30.6387 209.408 26.3033 209.408C21.8764 209.408 18.8645 206.221 18.8645 201.941C18.8645 197.389 21.922 194.02 26.3033 194.02ZM66.6464 189.103H60.5768V201.941C60.5768 204.764 60.3029 209.408 55.4197 209.408C50.5366 209.408 50.2628 204.764 50.2628 201.941V189.103H44.193V202.761C44.193 206.722 44.8775 215.144 54.4157 215.144C55.9674 215.144 58.7969 214.735 60.9875 212.003H61.0787V214.325H66.6464V189.103ZM72.488 214.325H78.5578V194.475H82.2087V189.103H78.5578V180.635H72.488V189.103H69.5216V194.475H72.488V214.325Z" fill="#439D55"/>
<path d="M92.386 214.325H96.1281L100.92 197.981L105.712 214.325H109.454L118.582 189.103H112.147L107.492 204.491L103.293 189.103H98.5469L94.3483 204.491L89.6933 189.103H83.2584L92.386 214.325ZM132.729 188.283C124.971 188.283 119.312 194.384 119.312 201.759C119.312 209.089 125.017 215.144 132.729 215.144C140.442 215.144 146.146 209.089 146.146 201.759C146.146 194.384 140.487 188.283 132.729 188.283ZM132.729 194.02C137.247 194.02 140.077 197.662 140.077 201.759C140.077 205.857 137.202 209.408 132.729 209.408C128.257 209.408 125.382 205.857 125.382 201.759C125.382 197.662 128.211 194.02 132.729 194.02ZM149.798 214.325H155.867V200.712C155.867 199.347 155.776 194.111 161.298 194.156V188.283C158.879 188.056 156.643 189.194 155.457 191.379H155.365V189.103H149.798V214.325ZM164.401 214.325H170.471V202.533L179.142 214.325H187.265L176.632 201.441L185.759 189.103H178.594L170.471 200.985V180.635H164.401V214.325Z" fill="#439D55"/>
</g>
</svg>
