<svg width="42" height="35" viewBox="0 0 42 35" fill="none" xmlns="http://www.w3.org/2000/svg">
<path d="M1.43663 20.8248L1.42888 20.8512L1.42258 20.878C1.14039 22.0773 1 23.3093 1 24.572C1 27.1822 1.84348 29.3937 3.56989 31.1201C5.29631 32.8465 7.50784 33.69 10.118 33.69C12.6138 33.69 14.7533 32.8349 16.4681 31.1201C18.1945 29.3937 19.038 27.1822 19.038 24.572C19.038 22.6352 18.5721 20.9205 17.5932 19.478C16.8412 18.2346 15.8252 17.2711 14.5625 16.5964L18.3125 2.25294L18.64 1H17.345H9.425H8.73086L8.48813 1.65032L3.24252 15.7046C2.38349 17.9514 1.77815 19.6637 1.43663 20.8248ZM22.4246 20.8248L22.4169 20.8512L22.4106 20.878C22.1284 22.0773 21.988 23.3093 21.988 24.572C21.988 27.1822 22.8315 29.3937 24.5579 31.1201C26.2843 32.8465 28.4958 33.69 31.106 33.69C33.6018 33.69 35.7413 32.8349 37.4561 31.1201C39.1825 29.3937 40.026 27.1822 40.026 24.572C40.026 22.6352 39.5601 20.9205 38.5812 19.4781C37.8292 18.2346 36.8132 17.2711 35.5506 16.5964L39.3005 2.25294L39.628 1H38.333H30.413H29.7189L29.4761 1.65032L24.2305 15.7047C23.3715 17.9515 22.7661 19.6637 22.4246 20.8248Z" stroke="#439D55" stroke-width="2"/>
</svg>
