<svg width="144" height="142" viewBox="0 0 144 142" fill="none" xmlns="http://www.w3.org/2000/svg">
<path d="M143.82 44.4909C143.615 39.9896 143.615 35.6929 143.615 31.3962C143.615 27.9179 140.955 25.258 137.477 25.258C111.901 25.258 92.4639 17.8923 76.3001 2.1377C73.8449 -0.112956 70.162 -0.112956 67.7067 2.1377C51.543 17.8923 32.1055 25.258 6.52995 25.258C3.05167 25.258 0.391809 27.9179 0.391809 31.3962C0.391809 35.6929 0.391809 39.9896 0.187204 44.4909C-0.631215 87.4578 -1.85885 146.384 69.9574 171.141L72.0034 171.55L74.0495 171.141C145.661 146.384 144.638 87.6625 143.82 44.4909ZM67.0929 104.031C65.8653 105.054 64.4331 105.668 62.7962 105.668H62.5916C60.9548 105.668 59.318 104.849 58.2949 103.622L39.2667 82.5473L48.4739 74.3632L63.4101 90.9361L96.556 59.427L104.945 68.4296L67.0929 104.031Z" fill="#3E3E3E"/>
</svg>
