<svg width="64" height="48" viewBox="0 0 64 48" fill="none" xmlns="http://www.w3.org/2000/svg">
<path d="M62.8014 0.710765C62.7501 0.710464 62.6988 0.71333 62.6478 0.719517V0.707446L36.9848 3.82176L11.3219 0.707446C10.6601 0.627476 10.0586 1.09915 9.97867 1.76094C9.97248 1.81194 9.96961 1.86324 9.96991 1.91455V19.5261C6.26985 23.5918 6.10553 29.7542 9.58364 34.0113L0.421751 43.1491C-0.0846275 43.5827 -0.143624 44.3447 0.290026 44.8511C0.723677 45.3575 1.48566 45.4165 1.99204 44.9828C2.03927 44.9424 2.08332 44.8983 2.12376 44.8511L9.95784 37.017V42.968C9.95347 43.582 10.4105 44.1015 11.0201 44.1751L36.8641 47.3015H37.1538L62.9375 44.1751C63.5471 44.1015 64.0041 43.582 63.9997 42.968V1.92662C64.0044 1.26 63.468 0.715594 62.8014 0.710765ZM11.9462 20.9175C11.9713 20.8921 11.9965 20.8668 12.022 20.8417C15.4087 17.459 20.8963 17.4623 24.2789 20.849C27.6615 24.2356 27.6583 29.7233 24.2716 33.1059C20.8878 36.4858 15.4056 36.4858 12.0218 33.1059C8.63531 29.7611 8.60136 24.3041 11.9462 20.9175ZM35.7776 44.7425L12.384 41.9058V36.4135C17.6039 39.6081 24.4254 37.9663 27.62 32.7463C30.8146 27.5264 29.1728 20.7049 23.9528 17.5103C20.4026 15.3375 15.9342 15.3375 12.384 17.5103V3.2665L35.7776 6.10319V44.7425ZM61.5854 41.9058L38.1918 44.7425V6.11526L61.5854 3.27857V41.9058Z" fill="#37B14F"/>
</svg>
