<svg width="19" height="19" viewBox="0 0 19 19" fill="none" xmlns="http://www.w3.org/2000/svg">
<path d="M11.5417 4.16666C12.3556 4.32547 13.1036 4.72354 13.69 5.30994C14.2764 5.89634 14.6745 6.64438 14.8333 7.45833M11.5417 0.833328C13.2327 1.02119 14.8096 1.77847 16.0135 2.98083C17.2174 4.1832 17.9767 5.75917 18.1667 7.44999M17.3333 14.1V16.6C17.3343 16.8321 17.2867 17.0618 17.1937 17.2745C17.1008 17.4871 16.9644 17.678 16.7934 17.8349C16.6224 17.9918 16.4205 18.1112 16.2006 18.1856C15.9808 18.2599 15.7478 18.2876 15.5167 18.2667C12.9523 17.988 10.4892 17.1118 8.32498 15.7083C6.31151 14.4289 4.60443 12.7218 3.32499 10.7083C1.91663 8.53433 1.04019 6.05916 0.766652 3.48333C0.745827 3.25288 0.773214 3.02063 0.847069 2.80135C0.920923 2.58207 1.03963 2.38057 1.19562 2.20968C1.35162 2.03879 1.54149 1.90225 1.75314 1.80876C1.9648 1.71527 2.1936 1.66688 2.42499 1.66666H4.92498C5.32941 1.66268 5.72148 1.80589 6.02812 2.06961C6.33476 2.33332 6.53505 2.69953 6.59165 3.09999C6.69717 3.90005 6.89286 4.6856 7.17499 5.44166C7.2871 5.73993 7.31137 6.06409 7.24491 6.37573C7.17844 6.68737 7.02404 6.97342 6.79998 7.2L5.74165 8.25833C6.92795 10.3446 8.65536 12.072 10.7417 13.2583L11.8 12.2C12.0266 11.9759 12.3126 11.8215 12.6243 11.7551C12.9359 11.6886 13.26 11.7129 13.5583 11.825C14.3144 12.1071 15.0999 12.3028 15.9 12.4083C16.3048 12.4654 16.6745 12.6693 16.9388 12.9812C17.203 13.2931 17.3435 13.6913 17.3333 14.1Z" stroke="black" stroke-width="1.25" stroke-linecap="round" stroke-linejoin="round"/>
</svg>
