<svg width="18" height="19" viewBox="0 0 18 19" fill="none" xmlns="http://www.w3.org/2000/svg">
<path d="M15.8943 0.85784C16.3336 0.4185 17.0459 0.4185 17.4853 0.85784C17.9246 1.29718 17.9246 2.00949 17.4853 2.44883L2.10571 17.8284C1.66637 18.2677 0.954059 18.2677 0.514719 17.8284C0.0753787 17.3891 0.0753787 16.6768 0.514719 16.2374L15.8943 0.85784Z" fill="#75807D"/>
<path d="M17.4853 16.2374C17.9246 16.6768 17.9246 17.3891 17.4853 17.8284C17.0459 18.2677 16.3336 18.2677 15.8943 17.8284L0.51472 2.44883C0.0753803 2.00949 0.0753793 1.29718 0.514719 0.857839C0.954059 0.4185 1.66637 0.418499 2.10571 0.857839L17.4853 16.2374Z" fill="#75807D"/>
</svg>
