<svg width="64" height="64" viewBox="0 0 64 64" fill="none" xmlns="http://www.w3.org/2000/svg">
<path d="M7.44824 7.46278V62.9015C7.44824 63.4904 7.92559 63.9678 8.51449 63.9678H49.0275C49.616 63.9678 50.0933 63.4904 50.0933 62.9015V18.1244C50.0933 18.1007 50.0819 18.0805 50.0797 18.0572C50.0744 17.9637 50.056 17.8714 50.0253 17.7832C50.0134 17.7489 50.0051 17.716 49.9901 17.6826C49.9383 17.5667 49.8663 17.4608 49.7767 17.3704L39.1155 6.70921C39.0251 6.61918 38.9188 6.54716 38.802 6.49578C38.7699 6.48217 38.7374 6.47075 38.7041 6.46065C38.6149 6.42991 38.5223 6.41146 38.4278 6.40532C38.4098 6.40839 38.3888 6.39697 38.3664 6.39697H8.51449C7.92559 6.39697 7.44824 6.87389 7.44824 7.46278ZM46.4537 17.0581H39.4322V10.0366L46.4537 17.0581ZM9.5803 8.52903H37.3001V18.1244C37.3001 18.7128 37.7775 19.1902 38.3659 19.1902H47.9613V61.8357H9.5803V8.52903Z" fill="#37B14F"/>
<path d="M52.2256 55.4387V57.5708H55.4239C56.0128 57.5708 56.4901 57.0939 56.4901 56.505V1.06625C56.4901 0.477352 56.0128 0 55.4239 0H14.9109C14.322 0 13.8446 0.477352 13.8446 1.06625V4.26455H15.9771V2.13206H54.3576V55.4387H52.2256Z" fill="#37B14F"/>
<path d="M15.9773 21.3228H41.5642V23.4548H15.9773V21.3228Z" fill="#37B14F"/>
<path d="M15.9773 14.9258H24.5064V17.0583H15.9773V14.9258Z" fill="#37B14F"/>
<path d="M15.9773 27.7195H33.0355V29.852H15.9773V27.7195Z" fill="#37B14F"/>
<path d="M35.1675 27.7195H41.5641V29.852H35.1675V27.7195Z" fill="#37B14F"/>
<path d="M15.9773 34.116H41.5642V36.2485H15.9773V34.116Z" fill="#37B14F"/>
<path d="M15.9773 46.9097H41.5642V49.0422H15.9773V46.9097Z" fill="#37B14F"/>
<path d="M25.5723 40.5129H41.5642V42.645H25.5723V40.5129Z" fill="#37B14F"/>
<path d="M15.9773 40.5129H23.4402V42.645H15.9773V40.5129Z" fill="#37B14F"/>
<path d="M15.9773 53.3066H20.2418V55.4387H15.9773V53.3066Z" fill="#37B14F"/>
<path d="M22.374 53.3066H41.5643V55.4387H22.374V53.3066Z" fill="#37B14F"/>
</svg>
