<svg width="38" height="38" viewBox="0 0 38 38" fill="none" xmlns="http://www.w3.org/2000/svg">
<path d="M19 37.9999C13.9247 37.9999 9.15324 36.0236 5.56495 32.435C1.97636 28.8464 0 24.0752 0 19C0 13.9247 1.97636 9.15353 5.56495 5.56495C9.15353 1.97636 13.9247 0 19 0C24.0752 0 28.8464 1.97636 32.435 5.56495C36.0236 9.15353 37.9999 13.9247 37.9999 19C37.9999 24.0752 36.0236 28.8467 32.435 32.4353C28.8464 36.0236 24.0752 37.9999 19 37.9999ZM19 1.48437C9.34169 1.48437 1.48437 9.34198 1.48437 19C1.48437 28.6582 9.34169 36.5156 19 36.5156C28.6582 36.5156 36.5156 28.6582 36.5156 19C36.5156 9.34198 28.6582 1.48437 19 1.48437Z" fill="#439D55"/>
<path d="M19.0183 32.9482C16.7091 32.9482 14.4069 32.3779 12.3798 31.2858C12.0191 31.0913 11.884 30.6413 12.0786 30.2804C12.2728 29.9194 12.7231 29.7846 13.084 29.9791C17.8911 32.5695 23.9484 31.6789 27.8135 27.8135C30.1688 25.4585 31.4659 22.3268 31.4659 18.9962C31.4659 15.6654 30.1688 12.534 27.8135 10.1787C22.9519 5.31706 15.0407 5.31677 10.1787 10.179C6.31357 14.0441 5.42295 20.1011 8.01307 24.9082C8.2076 25.2691 8.07279 25.7191 7.71184 25.9136C7.35119 26.1079 6.90065 25.9731 6.70641 25.6124C5.3122 23.0252 4.7689 19.9889 5.17594 17.063C5.5969 14.0381 6.96386 11.2943 9.12925 9.12918C14.5698 3.68831 23.4224 3.68831 28.8633 9.12918C31.499 11.7648 32.9503 15.2687 32.9503 18.9962C32.9503 22.7234 31.4987 26.2276 28.8633 28.8632C26.6979 31.0286 23.9544 32.3956 20.9295 32.8166C20.2957 32.9047 19.6567 32.9482 19.0183 32.9482Z" fill="#439D55"/>
<path d="M9.64628 29.088C9.45726 29.088 9.26852 29.0164 9.12356 28.8728C8.83249 28.5841 8.83075 28.1141 9.11921 27.8231L9.12762 27.8147C9.41638 27.5236 9.88633 27.5215 10.1774 27.8103C10.4685 28.0988 10.4702 28.5687 10.1818 28.8598L10.1733 28.8682C10.0281 29.0146 9.83734 29.088 9.64628 29.088Z" fill="#439D55"/>
<path d="M22.0475 24.4035C21.3213 24.8358 20.54 25.0549 19.725 25.0549C17.6304 25.0549 15.8245 23.5793 15.0179 21.4672H18.8695C19.2794 21.4672 19.6116 21.135 19.6116 20.725C19.6116 20.3151 19.2794 19.9828 18.8695 19.9828H14.6373C14.5923 19.6616 14.568 19.3326 14.568 18.9968C14.568 18.7368 14.5833 18.4811 14.6106 18.2294H19.9952C20.4052 18.2294 20.7377 17.8972 20.7377 17.4872C20.7377 17.0773 20.4052 16.745 19.9952 16.745H14.9388C15.7012 14.5167 17.5587 12.9387 19.725 12.9387C20.54 12.9387 21.3213 13.1579 22.0475 13.5902C22.3998 13.7998 22.8552 13.6841 23.0648 13.3318C23.2745 12.9796 23.1591 12.5241 22.8068 12.3145C21.8611 11.7518 20.7957 11.4543 19.725 11.4543C16.7531 11.4543 14.2311 13.6824 13.3857 16.745H11.979C11.5694 16.745 11.2368 17.0773 11.2368 17.4872C11.2368 17.8972 11.5694 18.2294 11.979 18.2294H13.1175C13.0949 18.4816 13.0833 18.7376 13.0833 18.9968C13.0833 19.3308 13.1027 19.6599 13.1401 19.9828H11.979C11.5694 19.9828 11.2368 20.3151 11.2368 20.725C11.2368 21.135 11.5694 21.4672 11.979 21.4672H13.4495C14.3526 24.4162 16.8244 26.539 19.725 26.539C20.7954 26.539 21.8611 26.2416 22.8065 25.6788C23.1588 25.4692 23.2745 25.0138 23.0648 24.6615C22.8552 24.3093 22.3998 24.1936 22.0475 24.4035Z" fill="#439D55"/>
</svg>
