<svg width="23.999999999999996" height="23.999999999999996" xmlns="http://www.w3.org/2000/svg">

 <g>
  <title>Layer 1</title>
  <ellipse ry="8.29155" rx="5.95825" id="svg_5" cy="12.29166" cx="12" fill="#fcfcfc"/>
  <path id="svg_1" fill="#157DC8" d="m12,0c-6.61677,0 -12,5.38323 -12,12c0,6.6163 5.38323,12 12,12c6.6163,0 12,-5.3837 12,-12c0,-6.61677 -5.3827,-12 -12,-12zm2.9843,12.4225l-1.9523,0c0,3.1191 0,6.9585 0,6.9585l-2.893,0c0,0 0,-3.8022 0,-6.9585l-1.37512,0l0,-2.4594l1.37512,0l0,-1.59075c0,-1.13929 0.5414,-2.91952 2.9196,-2.91952l2.1437,0.00822l0,2.38733c0,0 -1.3027,0 -1.556,0c-0.2532,0 -0.6134,0.12665 -0.6134,0.66995l0,1.44526l2.2042,0l-0.2528,2.45891z"/>
 </g>
</svg>