<svg width="40" height="39" viewBox="0 0 40 39" fill="none" xmlns="http://www.w3.org/2000/svg">
<path d="M20 0C8.97204 0 0 8.74774 0 19.5C0 30.2515 8.97204 39 20 39C31.0271 39 40 30.2515 40 19.5C40 8.74774 31.0288 0 20 0Z" fill="#0180FF"/>
<path fill-rule="evenodd" clip-rule="evenodd" d="M20.0125 7.63037C13.147 7.63037 7.82617 12.5287 7.82617 19.1443C7.82617 22.6048 9.28262 25.595 11.6537 27.6608C11.8523 27.8352 11.9724 28.0764 11.9823 28.3367L12.0485 30.4479C12.0705 31.1214 12.7841 31.5585 13.4167 31.2886L15.8343 30.2497C16.0389 30.1615 16.2683 30.1446 16.4841 30.202C17.5948 30.5005 18.7792 30.6581 20.0125 30.6581C26.878 30.6581 32.1988 25.7598 32.1988 19.1442C32.1988 12.5287 26.878 7.63037 20.0125 7.63037Z" fill="white"/>
<path fill-rule="evenodd" clip-rule="evenodd" d="M12.6955 22.5117L16.2754 16.9805C16.8443 16.1016 18.0653 15.8818 18.9186 16.5052L21.7653 18.5854C21.8925 18.6781 22.0471 18.7279 22.2059 18.7275C22.3646 18.7271 22.519 18.6764 22.6456 18.583L26.4903 15.7409C27.0028 15.3612 27.6747 15.9607 27.3289 16.4909L23.7515 22.0197C23.1826 22.8986 21.9615 23.1184 21.1082 22.495L18.2615 20.4148C18.1344 20.3221 17.9797 20.2723 17.821 20.2727C17.6622 20.2731 17.5079 20.3238 17.3812 20.4172L13.5341 23.2616C13.0217 23.6414 12.3498 23.0419 12.6955 22.5117Z" fill="#0180FF"/>
</svg>
