<svg width="38" height="38" viewBox="0 0 38 38" fill="none" xmlns="http://www.w3.org/2000/svg">
<g clip-path="url(#clip0)">
<path d="M11.2554 16.4865L11.2541 16.5106C11.1604 18.1505 12.079 19.6867 13.5948 20.4232L13.6104 20.4308C14.1448 20.6865 14.5828 21.1079 14.8592 21.632L14.8654 21.6434C15.6292 23.0977 17.209 23.9793 18.893 23.8909L18.9186 23.8895C19.5294 23.8553 20.1356 24.0128 20.6524 24.3403C22.0785 25.2323 23.8886 25.2323 25.3147 24.3403C25.8315 24.0128 26.4377 23.8553 27.0485 23.8895L27.074 23.8909C28.7554 23.98 30.3372 23.0977 31.1027 21.641L31.1065 21.633C31.3839 21.1076 31.823 20.6854 32.3591 20.4295L32.3716 20.4232C33.8874 19.6864 34.8063 18.1505 34.7123 16.5103L34.711 16.4875C34.6799 15.9099 34.8402 15.3382 35.1677 14.8611C36.1104 13.4862 36.1104 11.6733 35.168 10.298C34.8409 9.82131 34.6799 9.24993 34.711 8.67233L34.7123 8.64815C34.8063 7.00795 33.8874 5.47206 32.3702 4.73487L32.3564 4.72796C31.823 4.47301 31.386 4.05364 31.1093 3.53097L31.1013 3.51542C30.3372 2.06107 28.7554 1.17982 27.074 1.26791L27.0481 1.26929C26.4377 1.30349 25.8315 1.14596 25.315 0.818474H25.3143C23.8883 -0.0734839 22.0781 -0.0734839 20.6521 0.818474C20.1353 1.14562 19.529 1.30314 18.9183 1.26894L18.8927 1.26756C17.211 1.17844 15.6296 2.06072 14.8658 3.51473L14.8599 3.52544C14.5832 4.05053 14.1448 4.47232 13.6097 4.7283L13.5952 4.73521C12.0793 5.47172 11.1604 7.00795 11.2544 8.64815L11.2558 8.67095C11.2869 9.24855 11.1266 9.82027 10.7991 10.297C9.85636 11.6722 9.85636 13.4855 10.7991 14.8604C11.1262 15.3371 11.2869 15.9089 11.2554 16.4865ZM11.9636 11.1005C12.469 10.3647 12.7167 9.48242 12.6683 8.59115L12.667 8.56697C12.6172 7.48018 13.2273 6.47077 14.2122 6.0089L14.2243 6.00302C15.0323 5.61612 15.6938 4.9791 16.1111 4.18664L16.118 4.17351C16.6255 3.20693 17.6885 2.62104 18.8174 2.68115L18.8423 2.68219C19.7456 2.73297 20.6421 2.50014 21.4062 2.01581C22.3711 1.41231 23.5953 1.41231 24.5602 2.01581C25.3243 2.49945 26.2208 2.73263 27.1238 2.68254L27.1487 2.68115C28.2831 2.62174 29.3409 3.20693 29.847 4.17074L29.8563 4.18836C30.2736 4.97979 30.9345 5.61577 31.7415 6.00233L31.7532 6.00821C32.7536 6.4946 33.3609 7.49883 33.2998 8.56732L33.2984 8.59254C33.25 9.4838 33.4981 10.3657 34.0035 11.1016C34.6142 11.9925 34.6139 13.167 34.0028 14.0576C33.4977 14.7938 33.25 15.676 33.2984 16.5673L33.2998 16.5911C33.3609 17.6596 32.7536 18.6642 31.7529 19.1509L31.7425 19.1558C30.9338 19.5434 30.2716 20.1811 29.8539 20.9749L29.8487 20.9853C29.3409 21.9519 28.2797 22.5381 27.149 22.4776L27.1245 22.4763C26.2211 22.4258 25.3243 22.659 24.5598 23.143C23.5953 23.7461 22.3711 23.7461 21.4066 23.143C20.7115 22.7025 19.9052 22.469 19.0824 22.4697C19.0026 22.4697 18.9224 22.4718 18.8423 22.4763L18.8174 22.4773C17.7033 22.5481 16.6493 21.965 16.117 20.9836L16.1097 20.9701C15.6931 20.179 15.0326 19.5434 14.226 19.1568L14.2129 19.1503C13.2121 18.6639 12.6048 17.6593 12.6663 16.5911L12.6676 16.5659C12.7157 15.6747 12.4676 14.7924 11.9626 14.0569C11.3522 13.166 11.3525 11.9914 11.9636 11.1012V11.1005Z" fill="#439D55"/>
<path d="M18.4185 19.8934C18.7498 20.1003 19.1861 19.9991 19.393 19.6678L27.774 6.24144C27.9108 6.02691 27.9222 5.75538 27.8034 5.53049C27.6846 5.30526 27.4538 5.16155 27.1995 5.15361C26.9453 5.14566 26.7062 5.27486 26.5736 5.49215L18.1929 18.9185C17.986 19.2501 18.0869 19.6865 18.4185 19.8934Z" fill="#439D55"/>
<path d="M19.1694 12.6144C20.8922 12.6144 22.2941 11.0159 22.2941 9.05136C22.2941 7.08677 20.8922 5.48871 19.1694 5.48871C17.4467 5.48871 16.0452 7.08677 16.0452 9.05136C16.0452 11.0159 17.4467 12.6144 19.1694 12.6144ZM19.1694 6.90368C20.1122 6.90368 20.8791 7.86715 20.8791 9.05136C20.8791 10.2356 20.1122 11.1994 19.1694 11.1994C18.227 11.1994 17.4601 10.2352 17.4601 9.05136C17.4601 7.86749 18.227 6.90368 19.1694 6.90368Z" fill="#439D55"/>
<path d="M23.6729 16.1082C23.6729 18.0728 25.0744 19.6709 26.7971 19.6709C28.5199 19.6709 29.9218 18.0725 29.9218 16.1082C29.9218 14.1443 28.5202 12.5456 26.7975 12.5456C25.0744 12.5456 23.6729 14.1433 23.6729 16.1082ZM28.5068 16.1082C28.5068 17.2925 27.7399 18.2559 26.7971 18.2559C25.8547 18.2559 25.0878 17.2925 25.0878 16.1082C25.0878 14.924 25.8547 13.9606 26.7971 13.9606C27.7399 13.9606 28.5068 14.9233 28.5068 16.1082Z" fill="#439D55"/>
<path d="M37.9081 27.8563C36.9713 26.1937 34.8937 25.5605 33.1889 26.4179L27.6468 29.0364C26.8816 27.6135 25.4138 26.7077 23.7985 26.6621L18.6823 26.5212C17.8723 26.498 17.0774 26.2925 16.3571 25.9208L15.8365 25.651C13.171 24.2616 9.99386 24.265 7.33112 25.66L7.36359 24.4806C7.3743 24.0899 7.0665 23.7645 6.67579 23.7537L1.06565 23.5993C0.67494 23.5886 0.349869 23.8964 0.33916 24.2871L0.000271181 36.5987C-0.0104379 36.9894 0.29736 37.3148 0.688067 37.3255L6.29821 37.48H6.3179C6.70101 37.4796 7.01434 37.1746 7.02505 36.7918L7.04094 36.2028L8.4984 35.4224C9.07047 35.1146 9.73961 35.0414 10.3645 35.2183L19.0675 37.661C19.0827 37.6655 19.0979 37.6689 19.1135 37.6724C19.7425 37.804 20.3837 37.87 21.0266 37.8696C22.3877 37.8703 23.7328 37.577 24.9699 37.0091C25.0003 36.9953 25.0297 36.9794 25.0577 36.9614L37.6763 28.7987C37.9911 28.5956 38.0926 28.1821 37.9081 27.8563ZM1.43424 35.9303L1.7341 25.0337L5.92996 25.149L5.62976 36.046L1.43424 35.9303ZM24.3322 35.7448C22.7953 36.4384 21.0787 36.6298 19.4268 36.292L10.747 33.8562C9.77036 33.5798 8.72433 33.6945 7.83064 34.175L7.08585 34.5737L7.28552 27.3285C9.6453 25.7588 12.6722 25.5974 15.1857 26.907L15.7063 27.1768C16.6162 27.6467 17.6201 27.9061 18.6436 27.9355L23.7598 28.0764C25.1969 28.1175 26.4174 29.1407 26.7089 30.5488L19.0882 30.3391C18.6975 30.3284 18.3725 30.6362 18.3618 31.0269C18.351 31.4176 18.6588 31.743 19.0496 31.7537L27.4596 31.9852H27.4796C27.8624 31.9848 28.1757 31.6798 28.1864 31.2971C28.1951 30.9896 28.1719 30.6818 28.118 30.3792L33.8014 27.6933L33.818 27.6853C34.6243 27.277 35.5995 27.4135 36.2624 28.0273L24.3322 35.7448Z" fill="#439D55"/>
</g>
<defs>
<clipPath id="clip0">
<rect width="38" height="38" fill="white"/>
</clipPath>
</defs>
</svg>
