<svg width="44" height="44" viewBox="0 0 44 44" fill="none" xmlns="http://www.w3.org/2000/svg">
<path d="M37.5564 6.44359C33.4011 2.28834 27.8764 0 22 0C16.1236 0 10.5989 2.28834 6.44359 6.44359C2.28826 10.5988 0 16.1236 0 22C0 27.8764 2.28834 33.4011 6.44359 37.5564C10.5988 41.7117 16.1236 44 22 44C27.8764 44 33.4011 41.7117 37.5564 37.5564C41.7117 33.4012 44 27.8764 44 22C44 16.1236 41.7117 10.5989 37.5564 6.44359ZM36.5841 36.5841C32.6886 40.4797 27.5091 42.625 22 42.625C16.4909 42.625 11.3114 40.4797 7.41589 36.5841C3.52034 32.6886 1.375 27.5091 1.375 22C1.375 16.4909 3.52034 11.3114 7.41589 7.41589C11.3114 3.52034 16.4909 1.375 22 1.375C27.5091 1.375 32.6886 3.52034 36.5841 7.41589C40.4797 11.3114 42.625 16.4909 42.625 22C42.625 27.5091 40.4797 32.6886 36.5841 36.5841Z" fill="#439D55"/>
<path d="M4.125 22C4.125 12.1437 12.1437 4.125 22 4.125C25.5551 4.125 28.989 5.16579 31.9305 7.13488C32.246 7.34611 32.673 7.26155 32.8842 6.94598C33.0955 6.63051 33.0109 6.20348 32.6954 5.99225C29.5267 3.87114 25.8283 2.75 22 2.75C16.8581 2.75 12.024 4.75234 8.38819 8.38819C4.75234 12.024 2.75 16.8581 2.75 22C2.75 26.7438 4.49058 31.3012 7.65119 34.8329C7.78697 34.9846 7.975 35.0619 8.16372 35.0619C8.32691 35.0619 8.4908 35.0042 8.62194 34.8867C8.90484 34.6334 8.92899 34.1988 8.67573 33.9159C5.74123 30.6367 4.125 26.4049 4.125 22Z" fill="#439D55"/>
<path d="M38.0077 11.3048C37.7965 10.9893 37.3695 10.9047 37.054 11.1159C36.7385 11.3272 36.6539 11.7542 36.8651 12.0697C38.8341 15.0111 39.8749 18.445 39.8749 22C39.8749 31.8563 31.8562 39.875 21.9999 39.875C17.9107 39.875 13.9135 38.4588 10.7448 35.8874C10.4499 35.6482 10.017 35.6932 9.77771 35.9881C9.53846 36.2829 9.58349 36.7159 9.87834 36.9551C13.2913 39.7247 17.5962 41.25 21.9999 41.25C27.1418 41.25 31.9759 39.2477 35.6117 35.6118C39.2476 31.976 41.2499 27.1419 41.2499 22C41.2499 18.1718 40.1288 14.4733 38.0077 11.3048Z" fill="#439D55"/>
<path d="M33.9158 8.67581C34.378 9.08942 34.8237 9.53209 35.2404 9.99134C35.3761 10.1409 35.5626 10.2168 35.7498 10.2168C35.9145 10.2168 36.08 10.1579 36.2116 10.0384C36.4927 9.78328 36.5139 9.34844 36.2587 9.06725C35.8101 8.57294 35.3303 8.0965 34.8327 7.65117C34.5498 7.398 34.1152 7.42206 33.862 7.70497C33.6088 7.98788 33.6328 8.42255 33.9158 8.67581Z" fill="#439D55"/>
<path d="M22 8.9375C22.3797 8.9375 22.6875 8.62967 22.6875 8.25V6.1875C22.6875 5.80783 22.3797 5.5 22 5.5C21.6203 5.5 21.3125 5.80783 21.3125 6.1875V8.25C21.3125 8.62967 21.6203 8.9375 22 8.9375Z" fill="#439D55"/>
<path d="M21.3125 35.75V37.8125C21.3125 38.1922 21.6203 38.5 22 38.5C22.3797 38.5 22.6875 38.1922 22.6875 37.8125V35.75C22.6875 35.3703 22.3797 35.0625 22 35.0625C21.6203 35.0625 21.3125 35.3703 21.3125 35.75Z" fill="#439D55"/>
<path d="M8.9375 22C8.9375 21.6203 8.62967 21.3125 8.25 21.3125H6.1875C5.80783 21.3125 5.5 21.6203 5.5 22C5.5 22.3797 5.80783 22.6875 6.1875 22.6875H8.25C8.62967 22.6875 8.9375 22.3797 8.9375 22Z" fill="#439D55"/>
<path d="M35.0625 22C35.0625 22.3797 35.3703 22.6875 35.75 22.6875H37.8125C38.1922 22.6875 38.5 22.3797 38.5 22C38.5 21.6203 38.1922 21.3125 37.8125 21.3125H35.75C35.3703 21.3125 35.0625 21.6203 35.0625 22Z" fill="#439D55"/>
<path d="M15.7202 9.74841L14.689 7.9622C14.4991 7.63332 14.0786 7.52082 13.7498 7.71057C13.421 7.90041 13.3084 8.3209 13.4982 8.6497L14.5295 10.4359C14.6568 10.6564 14.8879 10.7797 15.1255 10.7797C15.2422 10.7797 15.3604 10.75 15.4687 10.6875C15.7974 10.4977 15.9101 10.0772 15.7202 9.74841Z" fill="#439D55"/>
<path d="M29.4702 33.5641C29.2804 33.2353 28.8598 33.1228 28.5311 33.3125C28.2023 33.5023 28.0896 33.9228 28.2795 34.2516L29.3107 36.0378C29.4381 36.2583 29.6692 36.3816 29.9068 36.3816C30.0234 36.3816 30.1417 36.3519 30.2499 36.2894C30.5787 36.0996 30.6914 35.6791 30.5016 35.3503L29.4702 33.5641Z" fill="#439D55"/>
<path d="M8.3066 30.5939C8.42322 30.5939 8.54147 30.5641 8.64975 30.5017L10.436 29.4704C10.7648 29.2806 10.8774 28.8601 10.6876 28.5313C10.4977 28.2025 10.0772 28.09 9.74846 28.2796L7.96225 29.3109C7.63345 29.5007 7.52079 29.9212 7.71062 30.25C7.8379 30.4705 8.06898 30.5939 8.3066 30.5939Z" fill="#439D55"/>
<path d="M33.9084 15.8126C34.025 15.8126 34.1433 15.7829 34.2516 15.7204L36.0378 14.6891C36.3666 14.4993 36.4792 14.0788 36.2894 13.75C36.0996 13.4212 35.6791 13.3087 35.3503 13.4984L33.5641 14.5296C33.2353 14.7195 33.1226 15.14 33.3124 15.4688C33.4398 15.6893 33.6709 15.8126 33.9084 15.8126Z" fill="#439D55"/>
<path d="M30.2499 7.71056C29.9211 7.52064 29.5006 7.6333 29.3107 7.96218L28.2795 9.7484C28.0896 10.0772 28.2023 10.4977 28.5311 10.6875C28.6394 10.7501 28.7575 10.7797 28.8742 10.7797C29.1119 10.7797 29.343 10.6564 29.4703 10.4359L30.5016 8.64968C30.6913 8.32089 30.5787 7.90039 30.2499 7.71056Z" fill="#439D55"/>
<path d="M15.4686 33.3125C15.1398 33.1226 14.7193 33.2353 14.5295 33.5641L13.4982 35.3503C13.3084 35.6791 13.421 36.0996 13.7498 36.2894C13.8581 36.352 13.9763 36.3816 14.093 36.3816C14.3306 36.3816 14.5617 36.2583 14.6891 36.0378L15.7203 34.2516C15.9101 33.9228 15.7974 33.5023 15.4686 33.3125Z" fill="#439D55"/>
<path d="M33.564 29.4704L35.3502 30.5016C35.4585 30.5642 35.5767 30.5938 35.6934 30.5938C35.931 30.5938 36.1621 30.4705 36.2895 30.25C36.4793 29.9212 36.3666 29.5007 36.0378 29.3109L34.2516 28.2796C33.9228 28.0897 33.5023 28.2025 33.3125 28.5313C33.1226 28.8601 33.2352 29.2805 33.564 29.4704Z" fill="#439D55"/>
<path d="M10.436 14.5296L8.64975 13.4984C8.32095 13.3085 7.90046 13.4212 7.71062 13.75C7.52079 14.0788 7.63345 14.4993 7.96225 14.6891L9.74846 15.7204C9.85674 15.7829 9.9749 15.8126 10.0916 15.8126C10.3292 15.8126 10.5603 15.6893 10.6877 15.4688C10.8774 15.14 10.7648 14.7195 10.436 14.5296Z" fill="#439D55"/>
<path d="M26.786 30.9763C26.9027 30.9763 27.0209 30.9465 27.1292 30.884C27.458 30.6942 27.5707 30.2737 27.3808 29.9449L23.5669 23.339C23.8755 22.9783 24.0625 22.5107 24.0625 22C24.0625 21.1038 23.4877 20.3395 22.6875 20.0558V11C22.6875 10.6203 22.3797 10.3125 22 10.3125C21.6203 10.3125 21.3125 10.6203 21.3125 11V20.0558C20.5123 20.3395 19.9375 21.1038 19.9375 22C19.9375 23.1373 20.8627 24.0625 22 24.0625C22.1287 24.0625 22.2545 24.05 22.3767 24.0274L26.1901 30.6324C26.3174 30.8529 26.5485 30.9763 26.786 30.9763ZM21.3125 22C21.3125 21.6209 21.6209 21.3125 22 21.3125C22.3791 21.3125 22.6875 21.6209 22.6875 22C22.6875 22.3791 22.3791 22.6875 22 22.6875C21.6209 22.6875 21.3125 22.3791 21.3125 22Z" fill="#439D55"/>
</svg>
