<svg width="36" height="36" viewBox="0 0 36 36" fill="none" xmlns="http://www.w3.org/2000/svg">
<rect width="36" height="36" rx="18" fill="#439D55"/>
<path d="M25.5 21.6901V23.9401C25.5008 24.149 25.458 24.3557 25.3743 24.5471C25.2907 24.7385 25.1679 24.9103 25.014 25.0515C24.8601 25.1927 24.6784 25.3002 24.4805 25.3671C24.2826 25.434 24.073 25.4589 23.865 25.4401C21.5571 25.1893 19.3402 24.4007 17.3925 23.1376C15.5803 21.9861 14.044 20.4497 12.8925 18.6376C11.6249 16.681 10.8361 14.4533 10.5899 12.1351C10.5712 11.9277 10.5959 11.7186 10.6623 11.5213C10.7288 11.3239 10.8356 11.1426 10.976 10.9888C11.1164 10.835 11.2873 10.7121 11.4778 10.628C11.6683 10.5438 11.8742 10.5003 12.0825 10.5001H14.3325C14.6964 10.4965 15.0493 10.6254 15.3253 10.8627C15.6012 11.1001 15.7815 11.4297 15.8325 11.7901C15.9274 12.5101 16.1035 13.2171 16.3575 13.8976C16.4584 14.166 16.4802 14.4578 16.4204 14.7382C16.3606 15.0187 16.2216 15.2762 16.02 15.4801L15.0675 16.4326C16.1351 18.3102 17.6898 19.8649 19.5675 20.9326L20.52 19.9801C20.7239 19.7784 20.9813 19.6395 21.2618 19.5796C21.5423 19.5198 21.834 19.5417 22.1025 19.6426C22.7829 19.8965 23.4899 20.0726 24.21 20.1676C24.5743 20.219 24.907 20.4025 25.1449 20.6832C25.3827 20.9639 25.5091 21.3223 25.5 21.6901Z" stroke="white" stroke-width="1.25" stroke-linecap="round" stroke-linejoin="round"/>
</svg>
