<svg width="44" height="44" viewBox="0 0 44 44" fill="none" xmlns="http://www.w3.org/2000/svg">
<g clip-path="url(#clip0)">
<path d="M8.06667 41.0666C8.28903 41.0666 8.49958 40.9653 8.63851 40.7916C8.94681 40.4103 16.1333 31.3926 16.1333 27.1333C16.1333 22.6782 12.5218 19.0667 8.06667 19.0667C3.61152 19.0667 0 22.6782 0 27.1333C0 31.3926 7.18652 40.4067 7.49482 40.7916C7.63376 40.9653 7.8443 41.0666 8.06667 41.0666ZM8.06667 20.5333C11.7101 20.5373 14.6627 23.4899 14.6667 27.1333C14.6667 29.9786 10.3318 36.2001 8.06667 39.1445C5.8015 36.2012 1.46667 29.98 1.46667 27.1333C1.47061 23.4899 4.42327 20.5373 8.06667 20.5333Z" fill="#439D55"/>
<path d="M11 26.4C11 24.7801 9.68656 23.4667 8.06663 23.4667C6.44671 23.4667 5.1333 24.7801 5.1333 26.4C5.1333 28.0199 6.44671 29.3333 8.06663 29.3333C9.68656 29.3333 11 28.0199 11 26.4ZM6.59997 26.4C6.59997 25.59 7.25667 24.9333 8.06663 24.9333C8.8766 24.9333 9.5333 25.59 9.5333 26.4C9.5333 27.21 8.8766 27.8667 8.06663 27.8667C7.25667 27.8667 6.59997 27.21 6.59997 26.4Z" fill="#439D55"/>
<path d="M38.1333 15.4C38.347 15.4 38.5497 15.3069 38.689 15.1447C39.2333 14.5134 43.9999 8.88665 43.9999 5.86667C43.9999 2.62646 41.3735 0 38.1333 0C34.8931 0 32.2666 2.62646 32.2666 5.86667C32.2666 8.88665 37.0333 14.5134 37.5775 15.1447C37.7168 15.3069 37.9195 15.4 38.1333 15.4ZM38.1333 1.46667C40.5624 1.46917 42.5308 3.4375 42.5333 5.86667C42.5333 7.72506 39.7335 11.5543 38.1333 13.5219C36.5323 11.5543 33.7333 7.72865 33.7333 5.86667C33.7358 3.4375 35.7041 1.46917 38.1333 1.46667Z" fill="#439D55"/>
<path d="M40.3334 5.13335C40.3334 3.91841 39.3483 2.93335 38.1334 2.93335C36.9184 2.93335 35.9333 3.91841 35.9333 5.13335C35.9333 6.34829 36.9184 7.33335 38.1334 7.33335C39.3483 7.33335 40.3334 6.34829 40.3334 5.13335ZM37.4 5.13335C37.4 4.72837 37.7284 4.40002 38.1334 4.40002C38.5383 4.40002 38.8667 4.72837 38.8667 5.13335C38.8667 5.53833 38.5383 5.86668 38.1334 5.86668C37.7284 5.86668 37.4 5.53833 37.4 5.13335Z" fill="#439D55"/>
<path d="M37.4001 18.3333H38.1334C38.5384 18.3333 38.8667 18.005 38.8667 17.6C38.8667 17.195 38.5384 16.8666 38.1334 16.8666H37.4001C36.9951 16.8666 36.6667 17.195 36.6667 17.6C36.6667 18.005 36.9951 18.3333 37.4001 18.3333Z" fill="#439D55"/>
<path d="M27.8668 22.7333H29.3495C29.7545 22.7333 30.0829 22.405 30.0829 22C30.0829 21.595 29.7545 21.2667 29.3495 21.2667H27.855C27.6612 21.267 27.4754 21.3447 27.339 21.4822C27.2025 21.6197 27.1263 21.8063 27.1277 22C27.1302 22.4061 27.4607 22.7337 27.8668 22.7333Z" fill="#439D55"/>
<path d="M36.0881 22C36.0881 22.405 36.4165 22.7333 36.8215 22.7333H38.3153C38.7203 22.7333 39.0487 22.405 39.0487 22C39.0487 21.595 38.7203 21.2667 38.3153 21.2667H36.8215C36.4165 21.2667 36.0881 21.595 36.0881 22Z" fill="#439D55"/>
<path d="M32.9172 18.3333H34.4114C34.8164 18.3333 35.1447 18.005 35.1447 17.6C35.1447 17.195 34.8164 16.8666 34.4114 16.8666H32.9172C32.5118 16.8666 32.1838 17.195 32.1838 17.6C32.1838 18.005 32.5118 18.3333 32.9172 18.3333Z" fill="#439D55"/>
<path d="M13.3576 42.5333H11.863C11.458 42.5333 11.1296 42.8617 11.1296 43.2667C11.1296 43.6716 11.458 44 11.863 44H13.3576C13.7625 44 14.0909 43.6716 14.0909 43.2667C14.0909 42.8617 13.7625 42.5333 13.3576 42.5333Z" fill="#439D55"/>
<path d="M25.713 20.9881C25.7642 20.9881 25.815 20.9827 25.8648 20.972C26.2608 20.8885 26.5143 20.5004 26.4316 20.1043C26.4109 20.0041 26.4005 19.9024 26.4001 19.8C26.3998 19.568 26.4545 19.3395 26.5598 19.1325C26.7435 18.7716 26.5999 18.3301 26.2386 18.1464C25.8777 17.9627 25.4362 18.1063 25.2525 18.4676C24.9485 19.0645 24.8583 19.7481 24.9965 20.4037C25.067 20.7431 25.366 20.9874 25.713 20.9881Z" fill="#439D55"/>
<path d="M32.34 22.7333H33.8346C34.2396 22.7333 34.568 22.405 34.568 22C34.568 21.595 34.2396 21.2667 33.8346 21.2667H32.34C31.935 21.2667 31.6067 21.595 31.6067 22C31.6067 22.405 31.935 22.7333 32.34 22.7333Z" fill="#439D55"/>
<path d="M28.4343 18.3333H29.9289C30.3338 18.3333 30.6622 18.005 30.6622 17.6C30.6622 17.195 30.3338 16.8666 29.9289 16.8666H28.4343C28.0293 16.8666 27.7009 17.195 27.7009 17.6C27.7009 18.005 28.0293 18.3333 28.4343 18.3333Z" fill="#439D55"/>
<path d="M21.1877 31.0764C21.2457 31.0915 21.3058 31.0986 21.3656 31.0986C21.7022 31.0979 21.9951 30.8688 22.0764 30.5426C22.1713 30.1655 22.35 29.8146 22.5992 29.516C22.7754 29.3162 22.8291 29.0369 22.7403 28.7862C22.6515 28.5352 22.4334 28.3522 22.1709 28.3078C21.9088 28.2638 21.6428 28.3651 21.4766 28.5728C21.0838 29.0415 20.8024 29.5929 20.6538 30.1863C20.6062 30.375 20.6359 30.5751 20.7361 30.742C20.836 30.9092 20.9986 31.0295 21.1877 31.0764Z" fill="#439D55"/>
<path d="M35.6751 42.5025C35.5175 42.5233 35.3589 42.5337 35.1999 42.5333H34.2768C33.8715 42.5333 33.5435 42.8617 33.5435 43.2667C33.5435 43.6716 33.8715 44 34.2768 44H35.1999C35.4205 44 35.6411 43.9857 35.8598 43.9574C36.2616 43.9055 36.5452 43.5377 36.4936 43.136C36.4417 42.7342 36.074 42.4506 35.6722 42.5025H35.6751Z" fill="#439D55"/>
<path d="M36.6968 33.9532C36.2116 33.8064 35.7071 33.7323 35.2 33.7333H35.0078C34.6028 33.7333 34.2744 34.0617 34.2744 34.4667C34.2744 34.8717 34.6028 35.2 35.0078 35.2H35.2C35.5624 35.2 35.923 35.2534 36.27 35.3583C36.3391 35.3798 36.4111 35.3905 36.4834 35.3905C36.8468 35.3909 37.1558 35.1248 37.2096 34.7653C37.2629 34.4055 37.0448 34.061 36.6968 33.9557V33.9532Z" fill="#439D55"/>
<path d="M35.1327 28.6C35.5377 28.6 35.8661 28.2717 35.8661 27.8667C35.8661 27.4617 35.5377 27.1334 35.1327 27.1334H33.6389C33.2339 27.1334 32.9055 27.4617 32.9055 27.8667C32.9055 28.2717 33.2339 28.6 33.6389 28.6H35.1327Z" fill="#439D55"/>
<path d="M39.5148 40.0025C39.146 39.8363 38.712 40.0003 38.5455 40.3692C38.3747 40.7483 38.1402 41.0957 37.8526 41.3961C37.6643 41.5841 37.5927 41.8591 37.6654 42.1147C37.7381 42.3708 37.9436 42.5673 38.2021 42.6282C38.461 42.6894 38.7328 42.6057 38.9122 42.4094C39.3154 41.9891 39.6441 41.5024 39.8833 40.9714C40.0487 40.6023 39.884 40.1686 39.5148 40.0025Z" fill="#439D55"/>
<path d="M43.3554 25.0623C43.1689 25.0071 42.968 25.0283 42.7968 25.1214C42.626 25.2145 42.4989 25.3716 42.4438 25.5582C42.336 25.9177 42.139 26.2443 41.8712 26.5071C41.5815 26.7907 41.5765 27.2551 41.8601 27.5448C42.1437 27.8345 42.6081 27.8391 42.8978 27.5559C43.3447 27.118 43.6727 26.5737 43.851 25.9739C43.9065 25.7874 43.885 25.5865 43.7923 25.4153C43.6992 25.2445 43.542 25.1174 43.3554 25.0623Z" fill="#439D55"/>
<path d="M42.5185 23.7087C42.8082 23.7091 43.0706 23.5386 43.1888 23.2744C43.3066 23.0101 43.2583 22.7011 43.0649 22.4855C42.6463 22.02 42.1164 21.6688 41.5248 21.4647C41.1417 21.3329 40.7246 21.537 40.5928 21.9201C40.461 22.3033 40.6651 22.7204 41.0482 22.8522C41.4035 22.9743 41.7214 23.1852 41.9721 23.4652C42.1114 23.6203 42.3101 23.7087 42.5185 23.7087Z" fill="#439D55"/>
<path d="M32.0197 33.7333H30.5258C30.1208 33.7333 29.7925 34.0617 29.7925 34.4667C29.7925 34.8717 30.1208 35.2 30.5258 35.2H32.0197C32.4247 35.2 32.753 34.8717 32.753 34.4667C32.753 34.0617 32.4247 33.7333 32.0197 33.7333Z" fill="#439D55"/>
<path d="M39.6154 27.1334H38.1208C37.7158 27.1334 37.3875 27.4617 37.3875 27.8667C37.3875 28.2717 37.7158 28.6 38.1208 28.6H39.6154C40.0204 28.6 40.3487 28.2717 40.3487 27.8667C40.3487 27.4617 40.0204 27.1334 39.6154 27.1334Z" fill="#439D55"/>
<path d="M17.84 42.5333H16.3461C15.9411 42.5333 15.6128 42.8617 15.6128 43.2667C15.6128 43.6716 15.9411 44 16.3461 44H17.84C18.245 44 18.5733 43.6716 18.5733 43.2667C18.5733 42.8617 18.245 42.5333 17.84 42.5333Z" fill="#439D55"/>
<path d="M39.4481 35.9845C39.2193 35.6497 38.7624 35.5638 38.4272 35.7926C38.0924 36.0214 38.0065 36.4783 38.2353 36.8135C38.4695 37.1565 38.6431 37.5371 38.7484 37.9389C38.8057 38.2014 39.0019 38.4116 39.2601 38.4868C39.5179 38.562 39.7961 38.49 39.9855 38.2991C40.1746 38.1086 40.2444 37.8297 40.1674 37.5722C40.0206 37.0058 39.7775 36.4686 39.4481 35.9845Z" fill="#439D55"/>
<path d="M23.4315 33.4701C23.0831 33.2965 22.7784 33.0473 22.5388 32.7404C22.2903 32.4203 21.8295 32.3626 21.5097 32.6111C21.1896 32.8593 21.132 33.3201 21.3801 33.6402C21.7557 34.1222 22.2348 34.5136 22.7823 34.785C23.1436 34.9536 23.5737 34.8025 23.7502 34.4448C23.9267 34.0875 23.7849 33.6542 23.4315 33.4701Z" fill="#439D55"/>
<path d="M22.3226 42.5333H20.8266C20.4216 42.5333 20.0933 42.8617 20.0933 43.2667C20.0933 43.6716 20.4216 44 20.8266 44H22.3226C22.7276 44 23.056 43.6716 23.056 43.2667C23.056 42.8617 22.7276 42.5333 22.3226 42.5333Z" fill="#439D55"/>
<path d="M31.2885 42.5333H29.7946C29.3896 42.5333 29.0613 42.8617 29.0613 43.2667C29.0613 43.6716 29.3896 44 29.7946 44H31.2885C31.6935 44 32.0218 43.6716 32.0218 43.2667C32.0218 42.8617 31.6935 42.5333 31.2885 42.5333Z" fill="#439D55"/>
<path d="M26.1676 28.6C26.5726 28.6 26.901 28.2717 26.901 27.8667C26.901 27.4617 26.5726 27.1334 26.1676 27.1334H24.6738C24.2688 27.1334 23.9404 27.4617 23.9404 27.8667C23.9404 28.2717 24.2688 28.6 24.6738 28.6H26.1676Z" fill="#439D55"/>
<path d="M30.6532 28.6C31.0581 28.6 31.3865 28.2717 31.3865 27.8667C31.3865 27.4617 31.0581 27.1334 30.6532 27.1334H29.1557C28.7507 27.1334 28.4224 27.4617 28.4224 27.8667C28.4224 28.2717 28.7507 28.6 29.1557 28.6H30.6532Z" fill="#439D55"/>
<path d="M27.5371 33.7333H26.0429C25.6379 33.7333 25.3096 34.0617 25.3096 34.4667C25.3096 34.8717 25.6379 35.2 26.0429 35.2H27.5371C27.9425 35.2 28.2705 34.8717 28.2705 34.4667C28.2705 34.0617 27.9425 33.7333 27.5371 33.7333Z" fill="#439D55"/>
<path d="M26.8063 42.5333H25.3117C24.9067 42.5333 24.5784 42.8617 24.5784 43.2667C24.5784 43.6716 24.9067 44 25.3117 44H26.8063C27.2113 44 27.5396 43.6716 27.5396 43.2667C27.5396 42.8617 27.2113 42.5333 26.8063 42.5333Z" fill="#439D55"/>
<path d="M8.79992 42.5333H8.06659C7.6616 42.5333 7.33325 42.8617 7.33325 43.2667C7.33325 43.6716 7.6616 44 8.06659 44H8.79992C9.2049 44 9.53325 43.6716 9.53325 43.2667C9.53325 42.8617 9.2049 42.5333 8.79992 42.5333Z" fill="#439D55"/>
</g>
<defs>
<clipPath id="clip0">
<rect width="44" height="44" fill="white"/>
</clipPath>
</defs>
</svg>
