<svg width="36" height="36" viewBox="0 0 36 36" fill="none" xmlns="http://www.w3.org/2000/svg">
<rect width="36" height="36" rx="18" fill="#439D55"/>
<path d="M24.75 16.5C24.75 21.75 18 26.25 18 26.25C18 26.25 11.25 21.75 11.25 16.5C11.25 14.7098 11.9612 12.9929 13.227 11.727C14.4929 10.4612 16.2098 9.75 18 9.75C19.7902 9.75 21.5071 10.4612 22.773 11.727C24.0388 12.9929 24.75 14.7098 24.75 16.5Z" stroke="white" stroke-width="1.25" stroke-linecap="round" stroke-linejoin="round"/>
<path d="M18 18.75C19.2426 18.75 20.25 17.7426 20.25 16.5C20.25 15.2574 19.2426 14.25 18 14.25C16.7574 14.25 15.75 15.2574 15.75 16.5C15.75 17.7426 16.7574 18.75 18 18.75Z" stroke="white" stroke-width="1.25" stroke-linecap="round" stroke-linejoin="round"/>
</svg>
