<svg width="44" height="44" viewBox="0 0 44 44" fill="none" xmlns="http://www.w3.org/2000/svg">
<g clip-path="url(#clip0)">
<path d="M41.8 20.5333C40.5045 20.5333 39.6 21.1109 39.6 21.9377V24.4589C38.4389 22.1643 36.6529 20.5333 34.4667 20.5333H13.9333C13.5284 20.5332 13.2001 20.8614 13.2 21.2663C13.2 21.2664 13.2 21.2666 13.2 21.2667V25.6728C13.2041 24.4764 12.7232 23.2826 11.7713 22.411C9.97902 20.77 7.19574 20.8927 5.55482 22.685C4.01812 24.3633 4.01473 26.9365 5.54693 28.619C5.12417 28.6655 4.72487 28.8371 4.4 29.1117V10.5599C4.4 9.5731 3.43393 8.79999 2.2 8.79999C0.966075 8.79999 0 9.5731 0 10.5599V42.2401C0 43.2269 0.966075 44 2.2 44C3.43393 44 4.4 43.2269 4.4 42.2401V37.4H39.6V42.5957C39.6 43.4224 40.5045 44 41.8 44C43.0955 44 44 43.4224 44 42.5957V21.9377C44 21.1109 43.0955 20.5333 41.8 20.5333ZM2.93333 42.2401C2.92545 42.3002 2.67914 42.5333 2.2 42.5333C1.71875 42.5333 1.47382 42.3002 1.46667 42.2401V10.5599C1.47382 10.4998 1.71875 10.2667 2.2 10.2667C2.67914 10.2667 2.92545 10.4998 2.93333 10.5599V42.2401ZM14.6667 22H34.4667C37.2324 22 39.3408 26.1182 39.5778 30.0667H14.6667V22ZM13.2 25.6743V29.2089C12.8836 28.9016 12.4806 28.6987 12.0453 28.6276C12.8144 27.7875 13.196 26.73 13.2 25.6743ZM8.8 22.7333C10.42 22.7333 11.7333 24.0466 11.7333 25.6667C11.7333 27.2867 10.42 28.6 8.8 28.6C7.17998 28.6 5.86667 27.2867 5.86667 25.6667C5.86841 24.0474 7.18071 22.7351 8.8 22.7333ZM39.6 35.9333H4.4V31.5312C4.78161 31.5011 5.07595 31.1828 5.07604 30.8C5.06898 30.403 5.38441 30.075 5.78142 30.0667H11.704C12.101 30.075 12.4164 30.403 12.4094 30.8C12.4093 31.2049 12.7375 31.5332 13.1423 31.5333C13.1424 31.5333 13.1426 31.5333 13.1427 31.5333H39.6V35.9333ZM42.5333 42.4044C42.0595 42.5763 41.5405 42.5763 41.0667 42.4044V22.1289C41.5405 21.957 42.0595 21.957 42.5333 22.1289V42.4044Z" fill="#439D55"/>
<path d="M12.5654 16.1333L15.2302 12.9361C15.4122 12.7174 15.4514 12.4131 15.3305 12.1555C15.2098 11.8979 14.951 11.7333 14.6666 11.7333H10.2666V13.2H13.1011L10.4364 16.3972C10.1772 16.7087 10.2197 17.1713 10.5312 17.4303C10.6629 17.5399 10.8287 17.5999 10.9999 17.6H15.3999V16.1333H12.5654Z" fill="#439D55"/>
<path d="M20.5663 12.4666L24.7786 7.05006C24.9507 6.82905 24.9819 6.5293 24.8588 6.27767C24.7356 6.02623 24.4801 5.86673 24.1999 5.86664H18.3333V7.3333H22.7004L18.488 12.7499C18.2392 13.0693 18.2965 13.5299 18.616 13.7787C18.7448 13.8789 18.9034 13.9334 19.0667 13.9334H24.9334V12.4667H20.5663V12.4666Z" fill="#439D55"/>
<path d="M30.0666 8.8L35.7864 1.17342C36.0295 0.849567 35.9642 0.390042 35.6403 0.14685C35.5134 0.0515167 35.3588 0 35.2 0H28.6V1.46667H33.7333L28.0135 9.09324C27.8468 9.31544 27.8199 9.61281 27.944 9.86132C28.0683 10.1097 28.3222 10.2667 28.6 10.2667H35.9333V8.8H30.0666Z" fill="#439D55"/>
</g>
<defs>
<clipPath id="clip0">
<rect width="44" height="44" fill="white"/>
</clipPath>
</defs>
</svg>
