<svg width="64" height="44" viewBox="0 0 64 44" fill="none" xmlns="http://www.w3.org/2000/svg">
<path d="M64 11.7962C63.9985 10.8246 63.7128 9.83919 63.0809 9.02694L58.0099 2.53844C57.1605 1.45994 55.8681 0.910816 54.5766 0.908691C53.808 0.908691 53.0254 1.10569 52.3339 1.53694L47.3894 4.61319C46.8694 4.94482 45.9779 5.17244 45.1168 5.16657C44.4478 5.16944 43.8013 5.03557 43.3744 4.82469L38.5324 2.47932C37.7514 2.10332 36.8808 1.94919 36.0053 1.94769C34.7479 1.95357 33.4745 2.26257 32.4513 2.97169L31.8863 3.36807C31.4346 3.14269 30.7445 2.79932 29.9628 2.41032C29.0253 1.95069 27.9229 1.76532 26.8094 1.76169C25.8035 1.76457 24.7979 1.91957 23.9149 2.29257L20.6169 3.69982C20.0801 3.93257 19.2264 4.08457 18.3784 4.08082C17.5304 4.08444 16.6781 3.93244 16.1414 3.69982L12.8404 2.29182C12.2383 2.03507 11.5946 1.92532 10.9568 1.92457C10.2223 1.92532 9.49213 2.07007 8.8135 2.34494C8.13575 2.62132 7.50663 3.02932 7.00563 3.58919L0.995629 10.3199C0.329504 11.0638 -0.00137073 12.0006 4.26775e-06 12.9227C-0.00137073 14.0223 0.469129 15.1254 1.37663 15.8986L6.98288 20.6816L4.32338 23.4559C3.59025 24.2211 3.22525 25.2131 3.22525 26.1939C3.22388 27.2376 3.63838 28.2913 4.45938 29.0672L4.99888 29.5798C5.50725 30.0621 6.11813 30.3688 6.75738 30.5324C6.43675 31.1222 6.2615 31.7688 6.26288 32.4167C6.2615 33.4611 6.676 34.5141 7.4955 35.2908L7.49413 35.2901L8.03525 35.8049C8.8055 36.5351 9.804 36.8987 10.7878 36.8981C11.3165 36.8988 11.8459 36.7926 12.3434 36.5846C12.518 37.2929 12.8786 37.9663 13.4459 38.5044L13.987 39.0193C14.7573 39.7494 15.7541 40.1131 16.7395 40.1124C17.5098 40.1132 18.2835 39.8862 18.9496 39.4456C19.1445 40.0724 19.4784 40.6666 19.9866 41.1494L20.5278 41.6643C21.2964 42.3944 22.2949 42.7581 23.2789 42.7574C24.3268 42.7582 25.385 42.3466 26.1666 41.5306L28.5171 39.0761L31.7105 42.0316C32.4749 42.7406 33.456 43.0933 34.4245 43.0912C35.4885 43.0934 36.5619 42.6672 37.3451 41.8287L37.8549 41.2826C38.2949 40.8099 38.5821 40.2506 38.7488 39.6667L39.9858 40.8084C40.7515 41.5146 41.7313 41.8658 42.6984 41.8651C43.7638 41.8658 44.8401 41.4396 45.6241 40.6004L46.131 40.0549C46.7164 39.4296 47.0459 38.6549 47.1476 37.8638C47.4741 37.9474 47.805 38.0042 48.1388 38.0042C49.2041 38.0042 50.2775 37.5787 51.0623 36.7403L51.5706 36.1948C52.2811 35.4333 52.6346 34.4567 52.6331 33.4938C52.6331 33.1949 52.5903 32.8976 52.524 32.6037C53.4076 32.4866 54.2644 32.0924 54.9159 31.3928L55.4256 30.8467C56.1361 30.0852 56.4881 29.1086 56.4881 28.1449C56.4895 27.0847 56.062 26.0148 55.2184 25.2353L54.265 24.3547L62.8698 14.8409C63.6423 13.9844 63.9986 12.8819 64 11.7962ZM7.75175 28.5081C7.29588 28.5067 6.85 28.3437 6.50163 28.0136L5.96125 27.5009C5.58738 27.1474 5.40275 26.6771 5.40125 26.1941C5.40275 25.7411 5.56488 25.2988 5.89875 24.9504L11.3458 19.2663C11.7006 18.8961 12.1741 18.7107 12.6599 18.7101C13.1144 18.7108 13.5588 18.8744 13.91 19.2053L14.4481 19.7187C14.4481 19.7187 15.0053 20.5426 15.0066 21.0262C15.0053 21.3883 14.8961 21.7411 14.6845 22.0466C14.6664 22.0647 8.8055 28.1728 8.8055 28.1728C8.49425 28.3931 8.12625 28.5064 7.75175 28.5081ZM12.102 34.1777C11.7479 34.5464 11.2751 34.7311 10.7894 34.7326C10.3335 34.7318 9.889 34.5682 9.53925 34.2381L8.99813 33.7238L8.99675 33.7231C8.62588 33.3711 8.43963 32.8992 8.43963 32.4162C8.43963 31.9632 8.60325 31.5209 8.9355 31.1726C8.9355 31.1726 16.1963 23.6144 16.2574 23.5416C16.6044 23.2078 17.0515 23.0354 17.5133 23.0347C17.9691 23.0354 18.4136 23.1983 18.7634 23.5292L19.3045 24.0441C19.6768 24.3961 19.8616 24.8673 19.863 25.3509C19.8615 25.8039 19.698 26.2468 19.3655 26.5952L12.102 34.1777ZM18.0529 37.3912C17.6995 37.7608 17.2269 37.9457 16.741 37.9471C16.2851 37.9463 15.8406 37.7827 15.4909 37.4518L14.9483 36.9376C14.576 36.5848 14.3898 36.1137 14.3898 35.6307C14.3898 35.2264 14.5273 34.8343 14.7904 34.5078L19.8469 29.2302C20.188 28.9226 20.6155 28.7604 21.0585 28.7604C21.5144 28.7612 21.9589 28.9241 22.3086 29.2549L22.8513 29.7698C23.2221 30.1218 23.4084 30.5931 23.4098 31.0759C23.4083 31.5298 23.2433 31.9727 22.9123 32.3202L18.0529 37.3912ZM27.6606 36.8342L24.5924 40.0364C24.2389 40.4058 23.7655 40.5907 23.2798 40.5921C22.8239 40.5913 22.3794 40.4277 22.0296 40.0968L21.4885 39.5826C21.1176 39.2306 20.9314 38.7587 20.93 38.2757C20.9314 37.8218 21.095 37.3789 21.4275 37.0321L24.4944 33.8299C24.8493 33.4606 25.3228 33.2751 25.8085 33.2743C26.263 33.2751 26.7089 33.4379 27.0586 33.7696L27.6013 34.2838C27.9721 34.6358 28.1569 35.1071 28.1584 35.5899C28.1566 36.0437 27.993 36.4866 27.6606 36.8342ZM54.3154 28.1478C54.3148 28.5926 54.1554 29.0282 53.8325 29.3743L53.3241 29.9198C52.9693 30.2994 52.4878 30.4914 51.9948 30.4922C51.5475 30.4914 51.1096 30.3343 50.7621 30.0131L42.1953 22.0904L40.7139 23.6766L49.8836 32.1714C50.2655 32.5249 50.4574 33.0049 50.4603 33.4951C50.4574 33.9416 50.2995 34.3764 49.9774 34.7227L49.4705 35.2682C49.1156 35.6478 48.6341 35.8391 48.1411 35.8406C47.6939 35.8392 47.2546 35.6813 46.9099 35.3621L38.3408 27.4396L36.8609 29.0257L44.4656 36.0582C44.8321 36.4094 45.0199 36.8771 45.0199 37.3569C45.0199 37.8021 44.862 38.2376 44.5399 38.5831L44.0315 39.1286C43.678 39.5082 43.1951 39.7002 42.7008 39.7016C42.252 39.7002 41.8143 39.5423 41.4681 39.2231L33.8786 32.2161H33.8773L33.8759 32.2147L32.3989 33.8037L32.4004 33.8051L32.4288 33.8319L36.23 37.3402C36.5668 37.6863 36.7413 38.1299 36.7426 38.5888C36.7413 39.0317 36.5848 39.4651 36.2626 39.8107L35.7543 40.3568C35.3994 40.7364 34.9194 40.9269 34.4278 40.9284C33.9805 40.9271 33.5426 40.7699 33.1965 40.4493L29.8869 37.3847C30.1749 36.8197 30.3356 36.2066 30.3356 35.5913C30.337 34.5477 29.9225 33.4954 29.103 32.7181L28.5604 32.2032C27.7918 31.4737 26.7946 31.1094 25.8108 31.1108C25.7344 31.1108 25.6574 31.1283 25.5825 31.1327C25.5825 31.1146 25.5868 31.0956 25.5868 31.0774C25.5881 30.0338 24.3541 28.2027 24.3541 28.2027L23.813 27.6893C23.2378 27.1438 22.5359 26.8036 21.8059 26.6668C21.9564 26.2407 22.0415 25.7971 22.0415 25.3527C22.0415 24.3091 21.6284 23.2559 20.8089 22.4794L20.2678 21.9646C19.4975 21.2344 18.5006 20.8701 17.5166 20.8708C17.4018 20.8708 17.2884 20.8941 17.1741 20.9043C17.1429 19.9022 16.7393 18.9008 15.9539 18.1547V18.1539L15.4143 17.6413C14.644 16.9104 13.6471 16.5461 12.6631 16.5468C11.6136 16.5461 10.557 16.9577 9.77538 17.7737L8.48963 19.1154L2.79388 14.2574C2.3845 13.9069 2.18013 13.4226 2.17863 12.9252C2.18 12.5084 2.32188 12.1004 2.62438 11.7617L8.63425 5.03107C8.87275 4.76344 9.2255 4.52132 9.63863 4.35319C10.0518 4.18519 10.5208 4.09294 10.9593 4.09357C11.3411 4.09357 11.6995 4.16269 11.9861 4.28632L15.2856 5.69419C16.2158 6.08619 17.2956 6.24694 18.3809 6.25044C19.4674 6.24682 20.5459 6.08607 21.4761 5.69419L24.7741 4.28694C25.2825 4.06519 26.0496 3.92769 26.8125 3.93057C27.6561 3.92544 28.5011 4.10007 28.9913 4.35019C29.3025 4.50507 29.5978 4.65207 29.8719 4.78944L26.5084 7.15382C25.4276 7.91382 24.8451 9.12244 24.8466 10.3421C24.8453 11.1493 25.1011 11.9711 25.6219 12.6684L25.6205 12.6669L26.0648 13.2639C26.9084 14.3854 28.2239 14.9621 29.5388 14.9649C30.2813 14.9649 31.0376 14.7773 31.7118 14.3729L33.7233 13.1649C34.1335 12.9141 34.753 12.7556 35.3936 12.7584C36.1464 12.7541 36.9049 12.9767 37.3609 13.3118L42.9258 17.3014C44.1643 18.1887 46.1815 19.8344 47.2994 20.8701L53.7405 26.8254C54.1219 27.1791 54.3139 27.6569 54.3154 28.1478ZM61.2548 13.3932L52.674 22.8814L48.7781 19.2802C47.5579 18.1537 45.5456 16.5109 44.1959 15.5414L38.6325 11.5518C37.6893 10.8836 36.5344 10.5947 35.3926 10.5904C34.421 10.5933 33.4421 10.8051 32.5971 11.3082L30.5871 12.5162C30.2788 12.7016 29.9153 12.7962 29.5376 12.7969C28.8626 12.7992 28.1871 12.4842 27.8105 11.9714L27.3676 11.3752L27.3661 11.3737C27.1305 11.0559 27.0208 10.6996 27.0191 10.3388C27.022 9.79332 27.2736 9.26394 27.761 8.91994L33.7084 4.74119C34.2226 4.36894 35.1375 4.10782 36.0065 4.11432C36.6101 4.11144 37.1868 4.23282 37.5816 4.42782L42.4235 6.77319C43.249 7.16957 44.1806 7.33169 45.1179 7.33394C46.3221 7.32807 47.5395 7.06632 48.5425 6.45032L53.4885 3.37344C53.8041 3.17644 54.183 3.07457 54.578 3.07457C55.2456 3.07319 55.9146 3.37569 56.2935 3.86944L61.3645 10.3579C61.6569 10.7296 61.8263 11.2538 61.8263 11.7972C61.8271 12.4048 61.6125 13.0027 61.2548 13.3932Z" fill="#37B14F"/>
</svg>
