<svg width="24" height="24" xmlns="http://www.w3.org/2000/svg">
 <defs>
  <linearGradient y2="-2.17241" x2="0.8009" y1="2.3732" x1="-0.85296" id="paint0_linear">
   <stop stop-color="#FFC107"/>
   <stop stop-color="#F44336" offset="0.507"/>
   <stop stop-color="#9C27B0" offset="0.99"/>
  </linearGradient>
  <linearGradient y2="-3.26897" x2="-0.64195" y1="6.14023" x1="-4.07606" id="paint1_linear">
   <stop stop-color="#FFC107"/>
   <stop stop-color="#F44336" offset="0.507"/>
   <stop stop-color="#9C27B0" offset="0.99"/>
  </linearGradient>
  <linearGradient y2="-0.035" x2="0.56026" y1="0.875" x1="0.22917" id="paint2_linear">
   <stop stop-color="#FFC107"/>
   <stop stop-color="#F44336" offset="0.507"/>
   <stop stop-color="#9C27B0" offset="0.99"/>
  </linearGradient>
  <linearGradient y2="-1.65919" x2="0.63167" y1="1.50845" x1="-0.09142" id="paint3_linear">
   <stop stop-color="#FFC107"/>
   <stop stop-color="#F44336" offset="0.507"/>
   <stop stop-color="#9C27B0" offset="0.99"/>
  </linearGradient>
 </defs>
 <g>
  <title>Layer 1</title>
  <ellipse ry="8.46865" rx="9.06239" id="svg_5" cy="12.15625" cx="12.03125" fill="#ffffff"/>
  <path id="svg_1" fill="url(#paint0_linear)" d="m11.9995,14.4023c1.324,0 2.4033,-1.0774 2.4033,-2.4023c0,-0.523 -0.1711,-1.0059 -0.4543,-1.4003c-0.4365,-0.60517 -1.1461,-1.00201 -1.9475,-1.00201c-0.8019,0 -1.511,0.39636 -1.9485,1.00151c-0.28418,0.3944 -0.45385,0.8773 -0.45433,1.4003c-0.00145,1.3249 1.07693,2.4028 2.40133,2.4028z"/>
  <path id="svg_2" fill="url(#paint1_linear)" d="m17.2455,9.06116l0,-2.31338l-2.3139,0.00725l0.0077,2.31387l2.3062,-0.00774z"/>
  <path id="svg_4" fill="url(#paint3_linear)" d="m15.733,12c0,2.0577 -1.6744,3.733 -3.733,3.733c-2.05866,0 -3.73255,-1.6753 -3.73255,-3.733c0,-0.495 0.0986,-0.9682 0.27455,-1.4003l-2.03738,0l0,5.5877c0,0.7221 0.58632,1.307 1.30798,1.307l8.3733,0c0.7207,0 1.308,-0.5849 1.308,-1.307l0,-5.5877l-2.0383,0c0.1774,0.4321 0.2774,0.9053 0.2774,1.4003z"/>
  <path id="svg_3" fill="url(#paint2_linear)" d="m12,0c-6.61677,0 -12,5.38323 -12,12c0,6.6163 5.38323,12 12,12c6.6163,0 12,-5.3837 12,-12c0,-6.61677 -5.3827,-12 -12,-12zm6.8246,16.1874c0,1.4554 -1.1833,2.6382 -2.6377,2.6382l-8.3738,0c-1.45493,0 -2.63772,-1.1828 -2.63772,-2.6382l0,-8.37382c0,-1.45492 1.18279,-2.63772 2.63772,-2.63772l8.3733,0c1.4549,0 2.6382,1.1828 2.6382,2.63772l0,8.37382z"/>
  <ellipse ry="0.99999" rx="0.46874" id="svg_6" cy="11.75" cx="17.31244" fill="#ffffff"/>
 </g>
</svg>