<svg width="64" height="64" viewBox="0 0 64 64" fill="none" xmlns="http://www.w3.org/2000/svg">
<path d="M63.997 52.0079C63.9964 51.9985 63.9965 51.9893 63.9956 51.9799C63.9922 51.9428 63.9869 51.9064 63.9793 51.8708C63.9785 51.8673 63.9774 51.8638 63.9765 51.8603C63.9691 51.8275 63.96 51.7955 63.9492 51.7643C63.9464 51.7559 63.9432 51.7478 63.9401 51.7395C63.9296 51.7111 63.9178 51.6835 63.9046 51.6566C63.9024 51.6519 63.9009 51.647 63.8985 51.6423L58.8845 41.7525V9.21502C58.8845 8.21427 58.0704 7.40015 57.0696 7.40015H6.93013C5.92938 7.40015 5.11525 8.21427 5.11525 9.21502V41.7523L0.101375 51.6421C0.099 51.6469 0.0975 51.6518 0.09525 51.6565C0.082125 51.6834 0.070375 51.711 0.05975 51.7393C0.056625 51.7475 0.0535 51.7558 0.050625 51.7641C0.04 51.7955 0.03075 51.8276 0.023375 51.8604C0.022625 51.8638 0.0215 51.8671 0.02075 51.8705C0.013125 51.9063 0.00775 51.9426 0.004375 51.9798C0.0035 51.989 0.0035 51.9984 0.003 52.0076C0.00175 52.0271 0 52.0464 0 52.0661V54.4444C0 55.633 0.966875 56.5999 2.1555 56.5999H61.8445C63.0331 56.5999 64 55.633 64 54.4444V52.0661C64 52.0464 63.9983 52.0271 63.997 52.0079ZM6.99038 9.2754H57.0096V41.039H6.99038V9.2754ZM6.62862 42.9139H57.3713L61.536 51.1285H40.9385L39.9046 47.3799C39.6941 46.6168 38.9944 46.0838 38.2028 46.0838H25.797C25.0054 46.0838 24.3055 46.6168 24.0951 47.3798L23.0613 51.1285H2.46388L6.62862 42.9139ZM38.9935 51.1286H25.0065L25.8806 47.9589H38.1194L38.9935 51.1286ZM62.125 54.4443C62.125 54.5989 61.9991 54.7248 61.8445 54.7248H2.1555C2.00087 54.7248 1.875 54.5989 1.875 54.4443V53.0035H62.125V54.4443Z" fill="#37B14F"/>
<path d="M54.0721 26.7195C53.5542 26.7195 53.1346 27.1391 53.1346 27.657V37.1639H10.8654V27.657C10.8654 27.1391 10.4457 26.7195 9.92786 26.7195C9.40998 26.7195 8.99036 27.1391 8.99036 27.657V37.5687C8.99036 38.3794 9.64973 39.0389 10.4605 39.0389H53.5396C54.3502 39.0389 55.0097 38.3795 55.0097 37.5687V27.657C55.0096 27.1394 54.59 26.7195 54.0721 26.7195Z" fill="#37B14F"/>
<path d="M53.5395 11.2754H10.4605C9.64986 11.2754 8.99036 11.9348 8.99036 12.7455V22.6573C8.99036 23.1751 9.40998 23.5948 9.92786 23.5948C10.4457 23.5948 10.8654 23.1751 10.8654 22.6573V13.1504H53.1346V22.6573C53.1346 23.1751 53.5542 23.5948 54.0721 23.5948C54.59 23.5948 55.0096 23.1751 55.0096 22.6573V12.7455C55.0096 11.9346 54.3502 11.2754 53.5395 11.2754Z" fill="#37B14F"/>
</svg>
