<svg width="261" height="222" viewBox="0 0 261 222" fill="none" xmlns="http://www.w3.org/2000/svg">
<path d="M7.81963 109.111C5.06678 106.06 0 108.011 0 112.109V264.578C0 269.253 1.43444 273.599 3.89188 277.194C4.33471 277.842 5.29885 277.829 5.74056 277.18L71.2393 180.853C71.5297 180.427 71.491 179.857 71.1457 179.473L7.81963 109.111Z" fill="#3E3E3E"/>
<path d="M175.569 194.342C173.864 196.231 171.437 197.313 168.898 197.313H91.195C88.6557 197.313 86.2286 196.231 84.5301 194.347L78.8663 188.056C78.3798 187.515 77.5149 187.574 77.1062 188.175L12.4679 283.235C12.08 283.805 12.293 284.591 12.918 284.884C15.8031 286.242 19.0257 287 22.4215 287H237.672C241.067 287 244.29 286.242 247.175 284.885C247.799 284.591 248.013 283.806 247.625 283.235L182.987 188.175C182.578 187.574 181.713 187.515 181.227 188.056L175.569 194.342Z" fill="#3E3E3E"/>
<path d="M252.274 109.11L188.948 179.478C188.603 179.861 188.564 180.432 188.855 180.858L254.354 277.179C254.795 277.828 255.759 277.841 256.202 277.193C258.659 273.599 260.094 269.253 260.094 264.578V112.109C260.094 108.017 255.031 106.055 252.274 109.11Z" fill="#3E3E3E"/>
<path d="M249.268 99.4224L235.101 85.2557C234.395 84.5494 233.188 85.0494 233.188 86.0483V113.988C233.188 115.016 234.457 115.501 235.144 114.735C245.47 103.224 246.628 101.629 249.127 100.317C249.463 100.14 249.537 99.6915 249.268 99.4224Z" fill="#3E3E3E"/>
<path d="M26.9061 113.981V86.049C26.9061 85.0501 25.6987 84.55 24.9924 85.2563L10.8223 99.4264C10.5555 99.6932 10.6262 100.141 10.9597 100.318C13.7131 101.787 15.106 103.74 24.947 114.726C25.6331 115.492 26.9061 115.01 26.9061 113.981Z" fill="#3E3E3E"/>
<path d="M91.9443 188.349L168.149 188.344C168.626 188.344 169.081 188.141 169.4 187.787L223.787 127.36C224.065 127.051 224.219 126.65 224.219 126.235V13.4531C224.219 6.02308 218.196 0 210.766 0H49.3281C41.8981 0 35.875 6.02308 35.875 13.4531V126.229C35.875 126.644 36.0286 127.045 36.3066 127.354L90.6942 187.793C91.0132 188.147 91.4678 188.349 91.9443 188.349ZM71.75 22.4219H188.344C190.821 22.4219 192.828 24.4286 192.828 26.9062C192.828 29.3839 190.821 31.3906 188.344 31.3906H71.75C69.2724 31.3906 67.2656 29.3839 67.2656 26.9062C67.2656 24.4286 69.2724 22.4219 71.75 22.4219ZM71.75 58.2969H188.344C190.821 58.2969 192.828 60.3036 192.828 62.7812C192.828 65.2589 190.821 67.2656 188.344 67.2656H71.75C69.2724 67.2656 67.2656 65.2589 67.2656 62.7812C67.2656 60.3036 69.2724 58.2969 71.75 58.2969ZM71.75 94.1719H188.344C190.821 94.1719 192.828 96.1786 192.828 98.6562C192.828 101.134 190.821 103.141 188.344 103.141H71.75C69.2724 103.141 67.2656 101.134 67.2656 98.6562C67.2656 96.1786 69.2724 94.1719 71.75 94.1719ZM71.75 130.047H188.344C190.821 130.047 192.828 132.054 192.828 134.531C192.828 137.009 190.821 139.016 188.344 139.016H71.75C69.2724 139.016 67.2656 137.009 67.2656 134.531C67.2656 132.054 69.2724 130.047 71.75 130.047Z" fill="#3E3E3E"/>
</svg>
