<svg width="200" height="41" viewBox="0 0 200 41" fill="none" xmlns="http://www.w3.org/2000/svg">
<path fill-rule="evenodd" clip-rule="evenodd" d="M40.6248 32.429C42.0949 32.2507 42.9868 30.3923 42.6278 29.1032C40.9996 29.8798 40.4242 30.7048 40.6248 32.429ZM20.1241 15.2086C22.9774 15.2086 25.2905 17.5217 25.2905 20.3751C25.2905 23.2284 22.9774 25.5415 20.1241 25.5415C17.2707 25.5415 14.9576 23.2284 14.9576 20.3751C14.9576 20.0031 14.9973 19.6404 15.072 19.2908C15.4875 19.5175 15.9641 19.6465 16.4709 19.6465C18.0861 19.6465 19.3955 18.3371 19.3955 16.7219C19.3955 16.2151 19.2666 15.7385 19.0398 15.323C19.3895 15.2483 19.7521 15.2086 20.1241 15.2086ZM43.5804 31.8507C44.2791 31.8957 44.8552 31.1096 44.8005 30.4794C43.9763 30.6987 43.6372 31.032 43.5804 31.8507ZM40.6057 29.3103C41.5599 29.1001 42.028 27.823 41.7105 26.9991C40.6903 27.6123 40.3647 28.1906 40.6057 29.3103ZM40.2001 38.5501C41.3565 39.1595 42.9377 38.2592 43.325 37.1434C41.7532 36.8886 40.921 37.1982 40.2001 38.5501ZM40.5769 35.9165C43.018 36.1062 45.0905 35.0102 45.4583 32.8612C42.9435 32.4084 40.9023 34.0093 40.5769 35.9165Z" fill="white"/>
<path fill-rule="evenodd" clip-rule="evenodd" d="M29.3052 37.9812C16.3749 44.7481 0.266602 35.5238 0.266602 20.3751C0.266602 -5.51098 39.4711 -5.86978 39.9766 19.9795C40.0619 26.7306 39.9792 33.4767 39.9792 40.2274C33.8289 39.6891 30.4699 35.487 30.2256 30.4067V20.5612C30.2268 20.4993 30.2275 20.4373 30.2275 20.3751C30.2275 14.7951 25.7041 10.2716 20.1241 10.2716C14.5441 10.2716 10.0207 14.7951 10.0207 20.3751C10.0207 26.7851 15.8954 31.5269 22.1175 30.2815L25.6478 36.5371C26.003 37.2579 26.6518 37.8302 27.4869 38.0628C28.1104 38.2364 28.743 38.1942 29.3052 37.9812ZM34.6654 31.8463C33.4141 31.4464 32.6062 30.4822 32.8584 29.3399C34.1997 29.6241 34.8898 30.8328 34.6654 31.8463ZM38.7593 28.4659C37.4423 27.5914 36.8241 26.2096 37.4918 24.9702C38.951 25.7403 39.3524 27.3664 38.7593 28.4659ZM38.6554 33.4377C36.5184 32.4279 35.3059 30.517 36.0266 28.5394C38.3514 29.364 39.2958 31.6832 38.6554 33.4377ZM38.9694 39.0613C35.4973 38.5711 32.9383 36.3972 33.089 33.2782C36.4936 33.4137 39.1453 35.4627 38.9694 39.0613Z" fill="#439D55"/>
<path d="M73.9469 13.028H69.2202V16.05H69.1427C67.593 13.6091 65.1909 12.3307 62.1302 12.3307C56.2025 12.3307 51.4758 17.2123 51.4758 23.9536C51.4758 30.8885 56.5124 35.189 61.9751 35.189C63.0988 35.189 66.6632 34.9953 69.1427 31.586H69.2202V34.4917H73.9469V13.028ZM62.9438 17.2123C66.6632 17.2123 69.1039 20.0018 69.1039 23.7211C69.1039 27.6342 66.6244 30.3074 62.9438 30.3074C59.1857 30.3074 56.6287 27.5954 56.6287 23.9536C56.6287 20.0792 59.2244 17.2123 62.9438 17.2123ZM97.1926 13.028H92.0399V23.9536C92.0399 26.3556 91.8074 30.3074 87.6619 30.3074C83.5164 30.3074 83.2839 26.3556 83.2839 23.9536V13.028H78.131V24.6509C78.131 28.0216 78.7122 35.189 86.8095 35.189C88.1268 35.189 90.5288 34.8403 92.3885 32.5158H92.466V34.4917H97.1926V13.028ZM102.152 34.4917H107.305V17.5997H110.404V13.028H107.305V5.82178H102.152V13.028H99.6335V17.5997H102.152V34.4917Z" fill="white"/>
<path d="M119.044 34.4917H122.221L126.289 20.5829L130.357 34.4917H133.534L141.282 13.028H135.819L131.868 26.1232L128.303 13.028H124.274L120.71 26.1232L116.758 13.028H111.295L119.044 34.4917ZM153.293 12.3307C146.706 12.3307 141.902 17.5222 141.902 23.7985C141.902 30.0363 146.745 35.189 153.293 35.189C159.84 35.189 164.683 30.0363 164.683 23.7985C164.683 17.5222 159.879 12.3307 153.293 12.3307ZM153.293 17.2123C157.128 17.2123 159.53 20.3117 159.53 23.7985C159.53 27.2855 157.09 30.3074 153.293 30.3074C149.496 30.3074 147.055 27.2855 147.055 23.7985C147.055 20.3117 149.457 17.2123 153.293 17.2123ZM167.783 34.4917H172.935V22.9075C172.935 21.7452 172.858 17.2897 177.546 17.3285V12.3307C175.492 12.137 173.594 13.1055 172.587 14.9651H172.509V13.028H167.783V34.4917ZM180.18 34.4917H185.333V24.4572L192.694 34.4917H199.591L190.564 23.5274L198.312 13.028H192.23L185.333 23.14V5.82178H180.18V34.4917Z" fill="#439D55"/>
</svg>
