<svg width="66" height="66" viewBox="0 0 66 66" fill="none" xmlns="http://www.w3.org/2000/svg">
<rect width="66" height="66" rx="4" fill="#1B5B4A"/>
<path d="M21.676 27.8C22.668 27.8 23.5267 27.9653 24.252 28.296C24.988 28.6267 25.5533 29.096 25.948 29.704C26.3427 30.312 26.54 31.032 26.54 31.864C26.54 32.6853 26.3427 33.4053 25.948 34.024C25.5533 34.632 24.988 35.1013 24.252 35.432C23.5267 35.752 22.668 35.912 21.676 35.912H19.42V39H16.828V27.8H21.676ZM21.532 33.8C22.3107 33.8 22.9027 33.6347 23.308 33.304C23.7133 32.9627 23.916 32.4827 23.916 31.864C23.916 31.2347 23.7133 30.7547 23.308 30.424C22.9027 30.0827 22.3107 29.912 21.532 29.912H19.42V33.8H21.532ZM28.3905 27.8H33.4785C34.6945 27.8 35.7665 28.0347 36.6945 28.504C37.6332 28.9627 38.3585 29.6133 38.8705 30.456C39.3932 31.2987 39.6545 32.28 39.6545 33.4C39.6545 34.52 39.3932 35.5013 38.8705 36.344C38.3585 37.1867 37.6332 37.8427 36.6945 38.312C35.7665 38.7707 34.6945 39 33.4785 39H28.3905V27.8ZM33.3505 36.872C34.4705 36.872 35.3612 36.5627 36.0225 35.944C36.6945 35.3147 37.0305 34.4667 37.0305 33.4C37.0305 32.3333 36.6945 31.4907 36.0225 30.872C35.3612 30.2427 34.4705 29.928 33.3505 29.928H30.9825V36.872H33.3505ZM44.2013 29.88V32.84H49.3853V34.92H44.2013V39H41.6093V27.8H50.0733V29.88H44.2013Z" fill="white"/>
</svg>
