<svg width="56" height="56" viewBox="0 0 56 56" fill="none" xmlns="http://www.w3.org/2000/svg">
<path d="M24.7335 3.7334C23.1871 3.7334 21.9335 4.98698 21.9335 6.5334C21.9351 8.07912 23.1878 9.33177 24.7335 9.3334C26.2799 9.3334 27.5335 8.07982 27.5335 6.5334C27.5335 4.98698 26.2799 3.7334 24.7335 3.7334ZM24.7335 7.46673C24.218 7.46673 23.8001 7.04883 23.8001 6.5334C23.8008 6.0182 24.2183 5.60077 24.7335 5.60007C25.2489 5.60007 25.6668 6.01797 25.6668 6.5334C25.6668 7.04883 25.2489 7.46673 24.7335 7.46673Z" fill="#B53636"/>
<path d="M39.6668 14.9333H9.80015C9.28472 14.9333 8.86682 15.3512 8.86682 15.8667V36.4C8.86682 36.9155 9.28472 37.3334 9.80015 37.3334H39.6668C40.1823 37.3334 40.6002 36.9155 40.6002 36.4V15.8667C40.6002 15.3512 40.1823 14.9333 39.6668 14.9333ZM29.4002 35.4667H20.0668V30.7089C20.0683 29.2135 21.2803 28.0015 22.7757 28H26.6914C28.1868 28.0015 29.3988 29.2135 29.4003 30.7089V35.4667H29.4002ZM21.9335 23.3334C21.9335 21.7869 23.1871 20.5333 24.7335 20.5333C26.2799 20.5333 27.5335 21.7869 27.5335 23.3334C27.5319 24.8791 26.2792 26.1317 24.7335 26.1334C23.1871 26.1334 21.9335 24.8798 21.9335 23.3334ZM38.7335 35.4667H31.2668V30.7089C31.2608 28.7747 30.037 27.0539 28.212 26.4131C29.9302 24.492 29.7656 21.5417 27.8444 19.8235C25.9233 18.1054 22.973 18.27 21.2548 20.1912C19.6706 21.9626 19.6706 24.6416 21.2548 26.4131C19.4298 27.054 18.2062 28.7747 18.2002 30.7089V35.4667H10.7335V16.8H38.7335V35.4667Z" fill="#B53636"/>
<path d="M22.8668 39.2H8.86682V41.0666H22.8668V39.2Z" fill="#B53636"/>
<path d="M30.3335 39.2H24.7335V41.0666H30.3335V39.2Z" fill="#B53636"/>
<path d="M31.2668 44.8H8.86682V46.6667H31.2668V44.8Z" fill="#B53636"/>
<path d="M35.9335 39.2H32.2002V41.0666H35.9335V39.2Z" fill="#B53636"/>
<path d="M52.46 38.5401L49.66 35.7401C49.2959 35.3757 48.7054 35.3754 48.3409 35.7395C48.3163 35.7642 48.2932 35.7901 48.2715 35.8171L46.2002 38.4061V6.53333C46.2002 6.0179 45.7823 5.6 45.2668 5.6H31.3776L32.1856 1.0983C32.2767 0.590917 31.9392 0.1057 31.4317 0.0147C31.3773 0.0049 31.3221 0 31.2668 0H18.2002C17.6846 0 17.2667 0.4179 17.2667 0.93345C17.2667 0.98875 17.2716 1.04393 17.2814 1.0983L18.0895 5.6H4.20018C3.68475 5.6 3.26685 6.0179 3.26685 6.53333V55.0667C3.26685 55.5821 3.68475 56 4.20018 56H45.2668C45.7823 56 46.2002 55.5821 46.2002 55.0667V47.263L52.5124 39.8029C52.826 39.4324 52.8032 38.8834 52.46 38.5401ZM30.1512 1.86667L28.4759 11.2H20.9911L19.3159 1.86667H30.1512ZM44.3335 54.1333H5.13351V7.46667H18.4244L19.2916 12.2983C19.3714 12.7431 19.7585 13.0668 20.2103 13.0667H29.2566C29.7085 13.0668 30.0955 12.7431 30.1753 12.2983L31.0425 7.46667H44.3334V40.7394L41.4559 44.3361L39.3933 42.2735C39.029 41.909 38.4382 41.9089 38.0739 42.2731C38.0738 42.2732 38.0736 42.2733 38.0735 42.2735L35.2735 45.0735C34.9091 45.4377 34.9089 46.0285 35.2732 46.3929C35.2733 46.393 35.2734 46.3931 35.2735 46.3932L40.8735 51.9932C41.0485 52.1683 41.2859 52.2667 41.5334 52.2667L41.5721 52.2657C41.8328 52.2549 42.0771 52.1354 42.2456 51.9363L44.3334 49.469V54.1333H44.3335ZM41.4761 49.9561L37.2532 45.7333L38.7335 44.2531L40.8736 46.3932C41.0621 46.5798 41.3202 46.6785 41.5851 46.6653C41.8503 46.6506 42.0965 46.5236 42.2623 46.3162L49.0778 37.7972L50.5329 39.2528L41.4761 49.9561Z" fill="#B53636"/>
<path d="M17.2668 50.3999H8.86682V52.2666H17.2668V50.3999Z" fill="#B53636"/>
<path d="M34.0668 50.3999H19.1334V52.2666H34.0668V50.3999Z" fill="#B53636"/>
</svg>
