<svg width="54" height="54" viewBox="0 0 54 54" fill="none" xmlns="http://www.w3.org/2000/svg">
<path d="M23.625 30.375H25.3125C25.3125 29.4799 24.9569 28.6215 24.324 27.9885C23.691 27.3556 22.8326 27 21.9375 27C21.0424 27 20.184 27.3556 19.551 27.9885C18.9181 28.6215 18.5625 29.4799 18.5625 30.375H20.25C20.25 29.9274 20.4278 29.4982 20.7443 29.1818C21.0607 28.8653 21.4899 28.6875 21.9375 28.6875C22.3851 28.6875 22.8143 28.8653 23.1307 29.1818C23.4472 29.4982 23.625 29.9274 23.625 30.375Z" fill="#B53636"/>
<path d="M32.0625 27C31.1674 27 30.309 27.3556 29.676 27.9885C29.0431 28.6215 28.6875 29.4799 28.6875 30.375H30.375C30.375 29.9274 30.5528 29.4982 30.8693 29.1818C31.1857 28.8653 31.6149 28.6875 32.0625 28.6875C32.5101 28.6875 32.9393 28.8653 33.2557 29.1818C33.5722 29.4982 33.75 29.9274 33.75 30.375H35.4375C35.4375 29.4799 35.0819 28.6215 34.449 27.9885C33.816 27.3556 32.9576 27 32.0625 27Z" fill="#B53636"/>
<path d="M27 38.8125C25.6281 38.8125 24.4688 38.0396 24.4688 37.125H22.7812C22.7812 38.9863 24.6738 40.5 27 40.5C29.3262 40.5 31.2188 38.9863 31.2188 37.125H29.5312C29.5312 38.0396 28.3719 38.8125 27 38.8125Z" fill="#B53636"/>
<path d="M50.625 26.3081V19.4062C50.6199 14.7085 48.7514 10.2047 45.4296 6.88287C42.1078 3.56108 37.604 1.69264 32.9062 1.6875H21.0938C16.396 1.69264 11.8922 3.56108 8.57037 6.88287C5.24858 10.2047 3.38014 14.7085 3.375 19.4062V26.3081C2.88331 26.4833 2.45752 26.8056 2.15557 27.2314C1.85363 27.6571 1.69019 28.1656 1.6875 28.6875V33.75C1.6895 34.4207 1.95683 35.0634 2.4311 35.5377C2.90537 36.0119 3.54804 36.2792 4.21875 36.2812V43.0312C4.22187 45.0443 5.02293 46.974 6.44636 48.3974C7.86979 49.8208 9.79947 50.6219 11.8125 50.625H21.2456C21.4208 51.1167 21.7431 51.5425 22.1689 51.8444C22.5946 52.1464 23.1031 52.3098 23.625 52.3125H30.375C31.0463 52.3125 31.6902 52.0458 32.1649 51.5711C32.6396 51.0964 32.9062 50.4526 32.9062 49.7812C32.9062 49.1099 32.6396 48.4661 32.1649 47.9914C31.6902 47.5167 31.0463 47.25 30.375 47.25H23.625C23.1031 47.2527 22.5946 47.4161 22.1689 47.7181C21.7431 48.02 21.4208 48.4458 21.2456 48.9375H11.8125C10.2466 48.9357 8.74537 48.3129 7.63812 47.2056C6.53087 46.0984 5.90804 44.5971 5.90625 43.0312V36.2812H7.10437C7.43382 37.0323 7.97448 37.6715 8.66057 38.1209C9.34665 38.5703 10.1486 38.8106 10.9688 38.8125H14.3438C15.1795 40.8094 16.5861 42.5151 18.3873 43.7159C20.1885 44.9167 22.304 45.5591 24.4688 45.5625H29.5312C31.696 45.5591 33.8115 44.9167 35.6127 43.7159C37.4139 42.5151 38.8205 40.8094 39.6562 38.8125H43.0312C43.8514 38.8106 44.6533 38.5703 45.3394 38.1209C46.0255 37.6715 46.5662 37.0323 46.8956 36.2812H49.7812C50.452 36.2792 51.0946 36.0119 51.5689 35.5377C52.0432 35.0634 52.3105 34.4207 52.3125 33.75V28.6875C52.3098 28.1656 52.1464 27.6571 51.8444 27.2314C51.5425 26.8056 51.1167 26.4833 50.625 26.3081ZM23.625 48.9375H30.375C30.5988 48.9375 30.8134 49.0264 30.9716 49.1846C31.1299 49.3429 31.2188 49.5575 31.2188 49.7812C31.2188 50.005 31.1299 50.2196 30.9716 50.3779C30.8134 50.5361 30.5988 50.625 30.375 50.625H23.625C23.4012 50.625 23.1866 50.5361 23.0284 50.3779C22.8701 50.2196 22.7812 50.005 22.7812 49.7812C22.7812 49.5575 22.8701 49.3429 23.0284 49.1846C23.1866 49.0264 23.4012 48.9375 23.625 48.9375ZM6.75 34.5938H4.21875C3.99497 34.5938 3.78036 34.5049 3.62213 34.3466C3.46389 34.1884 3.375 33.9738 3.375 33.75V28.6875C3.375 28.4637 3.46389 28.2491 3.62213 28.0909C3.78036 27.9326 3.99497 27.8438 4.21875 27.8438H6.75V34.5938ZM10.9688 37.125C10.298 37.123 9.65537 36.8557 9.1811 36.3814C8.70683 35.9071 8.4395 35.2645 8.4375 34.5938V27.8438C8.4395 27.173 8.70683 26.5304 9.1811 26.0561C9.65537 25.5818 10.298 25.3145 10.9688 25.3125H13.5V34.5938C13.5017 35.4465 13.6037 36.2961 13.8038 37.125H10.9688ZM38.8125 34.5938C38.8109 37.0548 37.8326 39.4146 36.0924 41.1549C34.3521 42.8951 31.9923 43.8734 29.5312 43.875H24.4688C22.0077 43.8734 19.6479 42.8951 17.9076 41.1549C16.1674 39.4146 15.1891 37.0548 15.1875 34.5938V25.0931L31.1006 20.3175L38.8125 24.9497V34.5938ZM38.8125 22.9753L35.4375 20.9503V16.0312H33.75V19.9378L32.0625 18.9253V13.5H30.375V18.7819L15.1875 23.3381V19.4062C15.1891 16.9452 16.1674 14.5854 17.9076 12.8451C19.6479 11.1049 22.0077 10.1266 24.4688 10.125H29.5312C31.9923 10.1266 34.3521 11.1049 36.0924 12.8451C37.8326 14.5854 38.8109 16.9452 38.8125 19.4062V22.9753ZM45.5625 34.5938C45.5605 35.2645 45.2932 35.9071 44.8189 36.3814C44.3446 36.8557 43.702 37.123 43.0312 37.125H40.1963C40.3963 36.2961 40.4983 35.4465 40.5 34.5938V25.3125H43.0312C43.702 25.3145 44.3446 25.5818 44.8189 26.0561C45.2932 26.5304 45.5605 27.173 45.5625 27.8438V34.5938ZM45.5625 24.4941C44.8377 23.9331 43.9478 23.6276 43.0312 23.625H40.5V19.4062C40.4973 16.498 39.3408 13.7096 37.2844 11.6531C35.2279 9.59667 32.4395 8.44018 29.5312 8.4375H24.4688C21.5605 8.44018 18.7721 9.59667 16.7156 11.6531C14.6592 13.7096 13.5027 16.498 13.5 19.4062V23.625H10.9688C10.0522 23.6276 9.1623 23.9331 8.4375 24.4941V19.4062C8.44152 16.0508 9.77623 12.834 12.1489 10.4614C14.5215 8.08873 17.7383 6.75402 21.0938 6.75H32.9062C36.2617 6.75402 39.4785 8.08873 41.8511 10.4614C44.2238 12.834 45.5585 16.0508 45.5625 19.4062V24.4941ZM32.9062 5.0625H21.0938C17.2912 5.06786 13.6459 6.58079 10.9571 9.2696C8.26829 11.9584 6.75536 15.6037 6.75 19.4062V26.1562H5.0625V19.4062C5.0663 15.1557 6.75652 11.0803 9.76214 8.07464C12.7678 5.06902 16.8432 3.3788 21.0938 3.375H32.9062C37.1568 3.3788 41.2322 5.06902 44.2379 8.07464C47.2435 11.0803 48.9337 15.1557 48.9375 19.4062V26.1562H47.25V19.4062C47.2446 15.6037 45.7317 11.9584 43.0429 9.2696C40.3541 6.58079 36.7088 5.06786 32.9062 5.0625ZM50.625 33.75C50.625 33.9738 50.5361 34.1884 50.3779 34.3466C50.2196 34.5049 50.005 34.5938 49.7812 34.5938H47.25V27.8438H49.7812C50.005 27.8438 50.2196 27.9326 50.3779 28.0909C50.5361 28.2491 50.625 28.4637 50.625 28.6875V33.75Z" fill="#B53636"/>
</svg>
