<svg width="54" height="54" viewBox="0 0 54 54" fill="none" xmlns="http://www.w3.org/2000/svg">
<rect width="54" height="54" rx="27" fill="#E24D4D"/>
<path d="M36.6924 15.6863C37.2782 15.1005 38.2279 15.1005 38.8137 15.6863C39.3995 16.2721 39.3995 17.2218 38.8137 17.8076L18.3076 38.3137C17.7218 38.8995 16.7721 38.8995 16.1863 38.3137C15.6005 37.7279 15.6005 36.7781 16.1863 36.1924L36.6924 15.6863Z" fill="white"/>
<path d="M38.8137 36.1924C39.3995 36.7781 39.3995 37.7279 38.8137 38.3137C38.2279 38.8995 37.2782 38.8995 36.6924 38.3137L16.1863 17.8076C15.6005 17.2218 15.6005 16.2721 16.1863 15.6863C16.7721 15.1005 17.7218 15.1005 18.3076 15.6863L38.8137 36.1924Z" fill="white"/>
</svg>
