<svg width="54" height="54" viewBox="0 0 54 54" fill="none" xmlns="http://www.w3.org/2000/svg">
<path d="M39.6562 1.6875H12.6562C11.9855 1.6895 11.3429 1.95683 10.8686 2.4311C10.3943 2.90537 10.127 3.54804 10.125 4.21875V21.9375H6.75C6.64301 21.9359 6.53681 21.956 6.43781 21.9966L2.21906 23.6841C2.06207 23.7466 1.92747 23.8548 1.83269 23.9947C1.73792 24.1346 1.68734 24.2998 1.6875 24.4688V36.2812C1.68822 36.4202 1.72325 36.5569 1.78949 36.679C1.85573 36.8012 1.95112 36.9051 2.06719 36.9816L4.60688 38.6691C4.74341 38.7629 4.90528 38.8129 5.07094 38.8125H10.125V49.7812C10.127 50.452 10.3943 51.0946 10.8686 51.5689C11.3429 52.0432 11.9855 52.3105 12.6562 52.3125H39.6562C40.327 52.3105 40.9696 52.0432 41.4439 51.5689C41.9182 51.0946 42.1855 50.452 42.1875 49.7812V4.21875C42.1855 3.54804 41.9182 2.90537 41.4439 2.4311C40.9696 1.95683 40.327 1.6895 39.6562 1.6875ZM10.0406 28.6875H10.125V37.125H5.32406L3.375 35.8256V25.0425L6.91031 23.625H16.875C17.3226 23.625 17.7518 23.8028 18.0682 24.1193C18.3847 24.4357 18.5625 24.8649 18.5625 25.3125C18.5625 25.7601 18.3847 26.1893 18.0682 26.5057C17.7518 26.8222 17.3226 27 16.875 27H9.28125C9.05747 27 8.84286 27.0889 8.68463 27.2471C8.52639 27.4054 8.4375 27.62 8.4375 27.8438C8.4355 28.5145 8.16817 29.1571 7.6939 29.6314C7.21963 30.1057 6.57696 30.373 5.90625 30.375V32.0625C6.87842 32.0613 7.82045 31.7249 8.57355 31.1101C9.32666 30.4954 9.84479 29.6397 10.0406 28.6875ZM40.5 49.7812C40.5 50.005 40.4111 50.2196 40.2529 50.3779C40.0946 50.5361 39.88 50.625 39.6562 50.625H12.6562C12.4325 50.625 12.2179 50.5361 12.0596 50.3779C11.9014 50.2196 11.8125 50.005 11.8125 49.7812V28.6875H16.875C17.7701 28.6875 18.6285 28.3319 19.2615 27.699C19.8944 27.066 20.25 26.2076 20.25 25.3125C20.25 24.4174 19.8944 23.559 19.2615 22.926C18.6285 22.2931 17.7701 21.9375 16.875 21.9375H11.8125V4.21875C11.8125 3.99497 11.9014 3.78036 12.0596 3.62213C12.2179 3.46389 12.4325 3.375 12.6562 3.375H39.6562C39.88 3.375 40.0946 3.46389 40.2529 3.62213C40.4111 3.78036 40.5 3.99497 40.5 4.21875V49.7812Z" fill="#B53636"/>
<path d="M26.1562 16.875C26.38 16.8749 26.5946 16.786 26.7528 16.6278L31.5259 11.8547L30.3328 10.6616L26.1562 14.8382L24.3658 13.0477L23.1727 14.2408L25.5597 16.6278C25.7179 16.786 25.9325 16.8749 26.1562 16.875Z" fill="#B53636"/>
<path d="M34.096 8.51343L26.5022 5.13843C26.3937 5.0884 26.2757 5.0625 26.1563 5.0625C26.0368 5.0625 25.9188 5.0884 25.8103 5.13843L18.2166 8.51343C18.0677 8.57883 17.9412 8.68639 17.8528 8.82283C17.7643 8.95928 17.7177 9.11863 17.7188 9.28124V14.6897C17.7184 15.7612 17.9453 16.8207 18.3845 17.7981C18.8238 18.7754 19.4653 19.6485 20.2669 20.3597L25.5994 25.1016C25.7534 25.2368 25.9513 25.3114 26.1563 25.3114C26.3612 25.3114 26.5592 25.2368 26.7131 25.1016L32.0456 20.3597C32.8472 19.6485 33.4888 18.7754 33.928 17.7981C34.3673 16.8207 34.5942 15.7612 34.5938 14.6897V9.28124C34.5948 9.11863 34.5482 8.95928 34.4598 8.82283C34.3713 8.68639 34.2448 8.57883 34.096 8.51343ZM32.9063 14.6897C32.9052 15.5234 32.7281 16.3475 32.3864 17.1079C32.0447 17.8684 31.5461 18.5481 30.9235 19.1025L26.1563 23.3381L21.3891 19.1025C20.7664 18.5481 20.2679 17.8684 19.9262 17.1079C19.5845 16.3475 19.4073 15.5234 19.4063 14.6897V9.82968L26.1563 6.82593L32.9063 9.82968V14.6897Z" fill="#B53636"/>
<path d="M51.4688 18.5625H48.9375V16.0312C48.9375 15.3599 48.6708 14.7161 48.1961 14.2414C47.7214 13.7667 47.0776 13.5 46.4062 13.5C45.7349 13.5 45.0911 13.7667 44.6164 14.2414C44.1417 14.7161 43.875 15.3599 43.875 16.0312V44.7188C43.8751 44.787 43.8836 44.855 43.9003 44.9213L45.5878 51.6713C45.6335 51.8537 45.7389 52.0156 45.8872 52.1313C46.0355 52.247 46.2182 52.3099 46.4062 52.3099C46.5943 52.3099 46.777 52.247 46.9253 52.1313C47.0736 52.0156 47.179 51.8537 47.2247 51.6713L48.9122 44.9213C48.9289 44.855 48.9374 44.787 48.9375 44.7188V20.25H50.625V27.8438H52.3125V19.4062C52.3125 19.1825 52.2236 18.9679 52.0654 18.8096C51.9071 18.6514 51.6925 18.5625 51.4688 18.5625ZM46.4062 47.9925L45.7987 45.5625H47.0138L46.4062 47.9925ZM47.25 43.875H45.5625V20.25H47.25V43.875ZM47.25 18.5625H45.5625V16.0312C45.5625 15.8075 45.6514 15.5929 45.8096 15.4346C45.9679 15.2764 46.1825 15.1875 46.4062 15.1875C46.63 15.1875 46.8446 15.2764 47.0029 15.4346C47.1611 15.5929 47.25 15.8075 47.25 16.0312V18.5625Z" fill="#B53636"/>
<path d="M15.1875 32.0625H18.5625V33.75H15.1875V32.0625Z" fill="#B53636"/>
<path d="M20.25 32.0625H37.125V33.75H20.25V32.0625Z" fill="#B53636"/>
<path d="M15.1875 37.125H18.5625V38.8125H15.1875V37.125Z" fill="#B53636"/>
<path d="M20.25 37.125H37.125V38.8125H20.25V37.125Z" fill="#B53636"/>
<path d="M15.1875 42.1875H18.5625V43.875H15.1875V42.1875Z" fill="#B53636"/>
<path d="M20.25 42.1875H37.125V43.875H20.25V42.1875Z" fill="#B53636"/>
<path d="M15.1875 47.25H18.5625V48.9375H15.1875V47.25Z" fill="#B53636"/>
<path d="M20.25 47.25H37.125V48.9375H20.25V47.25Z" fill="#B53636"/>
</svg>
