<svg width="56" height="56" viewBox="0 0 56 56" fill="none" xmlns="http://www.w3.org/2000/svg">
<path d="M55.6951 12.0745C55.6901 11.993 55.6741 11.9118 55.6472 11.8348C55.6372 11.8048 55.6295 11.776 55.6167 11.7469C55.5711 11.6452 55.5078 11.5527 55.4299 11.4734L44.2299 0.273438C44.1506 0.195052 44.0576 0.131706 43.9555 0.0865886C43.9277 0.0738281 43.8995 0.0660807 43.8707 0.0560547C43.7914 0.028711 43.7094 0.0123047 43.626 0.00729167C43.6101 0.0104818 43.5932 0 43.5736 0H15.5736C12.9978 0.00319011 10.9101 2.09043 10.9069 4.66667V11.5359C4.49073 14.3655 0.349976 20.7165 0.349976 27.7293C0.349976 34.7421 4.49073 41.0931 10.9069 43.9227V51.3333C10.9101 53.9096 12.9978 55.9968 15.5736 56H51.0403C53.6165 55.9968 55.7042 53.9096 55.7069 51.3333V12.1333C55.7069 12.1128 55.6969 12.0951 55.6951 12.0745ZM52.5205 11.2H45.4403C44.9248 11.2 44.5069 10.7821 44.5069 10.2667V3.18646L52.5205 11.2ZM2.23624 27.7293C2.23077 23.5193 3.90056 19.4806 6.87738 16.5038C9.85421 13.527 13.8933 11.8572 18.1029 11.8626C18.6334 11.8626 19.1597 11.8886 19.6793 11.9392C26.8962 12.6524 32.7045 18.1804 33.7736 25.3531C33.8976 26.1393 33.9627 26.9336 33.9687 27.7293C33.9755 30.7184 33.1306 33.6474 31.5337 36.174C30.2672 38.1928 28.5605 39.8991 26.5412 41.1646C21.6517 44.2354 15.4802 44.4076 10.4271 41.614C5.37393 38.8208 2.23715 33.5029 2.23624 27.7293ZM28.9429 41.7498C29.0705 41.6509 29.1967 41.5529 29.3216 41.4513C29.7823 41.0803 30.2235 40.6861 30.6441 40.2705C31.0597 39.8499 31.4539 39.4092 31.8249 38.9489C31.9265 38.824 32.0245 38.6969 32.1234 38.5693C32.2364 38.4216 32.359 38.2817 32.467 38.1313L40.4236 46.0975C40.9504 46.6193 41.2471 47.3302 41.2471 48.0717C41.2471 48.8136 40.9504 49.5241 40.4236 50.0464C39.3217 51.1114 37.5739 51.1114 36.472 50.0464L28.5049 42.0934C28.6553 41.9841 28.7961 41.8628 28.9429 41.7498ZM51.0403 54.1333H15.5736C14.0273 54.1333 12.7736 52.8796 12.7736 51.3333V44.6514C12.8315 44.6701 12.8921 44.6824 12.9509 44.7002C13.1004 44.7458 13.2517 44.7822 13.403 44.8242C13.7521 44.9176 14.1039 45.011 14.4593 45.0807C14.6339 45.1172 14.8084 45.1509 14.9848 45.1819C15.3403 45.2443 15.6989 45.2936 16.059 45.335C16.2198 45.3533 16.3784 45.376 16.5398 45.3897C17.057 45.4339 17.5774 45.4626 18.1029 45.4626C21.1882 45.4649 24.2197 44.6574 26.8944 43.1202L35.1467 51.3643C36.3047 52.6317 38.0657 53.1613 39.7304 52.742C41.3957 52.3232 42.6963 51.0239 43.1165 49.3591C43.5371 47.6943 43.0094 45.9329 41.7425 44.774L33.4938 36.5203C35.031 33.8456 35.839 30.8141 35.8362 27.7293C35.8362 27.1382 35.808 26.5517 35.7506 25.9702C35.3523 21.8923 33.5471 18.0806 30.645 15.189C27.326 11.8521 22.8097 9.98229 18.1029 9.99596C17.5774 9.99596 17.057 10.0251 16.5398 10.0689C16.3784 10.083 16.2185 10.1053 16.058 10.124C15.6989 10.1641 15.3421 10.2152 14.9866 10.2771C14.8094 10.3081 14.6325 10.3419 14.4566 10.3788C14.1057 10.4517 13.7575 10.5374 13.4121 10.6326C13.2571 10.6745 13.1022 10.7119 12.9454 10.7584C12.8875 10.7762 12.8288 10.7885 12.7709 10.8072V4.66667C12.7709 3.12038 14.0246 1.86667 15.5709 1.86667H42.6403V10.2667C42.6403 11.813 43.894 13.0667 45.4403 13.0667H53.8403V51.3333C53.8403 52.8796 52.587 54.1333 51.0403 54.1333Z" fill="#B53636"/>
<path d="M38.907 6.53343C38.907 6.018 38.4891 5.6001 37.9736 5.6001H17.4403C16.9249 5.6001 16.507 6.018 16.507 6.53343C16.507 7.04886 16.9249 7.46676 17.4403 7.46676H37.9736C38.4891 7.46676 38.907 7.04886 38.907 6.53343Z" fill="#B53636"/>
<path d="M49.1736 22.3999H37.9736C37.4582 22.3999 37.0403 22.8178 37.0403 23.3332C37.0403 23.8487 37.4582 24.2666 37.9736 24.2666H49.1736C49.689 24.2666 50.1069 23.8487 50.1069 23.3332C50.1069 22.8178 49.689 22.3999 49.1736 22.3999Z" fill="#B53636"/>
<path d="M49.1736 28H37.9736C37.4582 28 37.0403 28.4179 37.0403 28.9333C37.0403 29.4488 37.4582 29.8667 37.9736 29.8667H49.1736C49.689 29.8667 50.1069 29.4488 50.1069 28.9333C50.1069 28.4179 49.689 28 49.1736 28Z" fill="#B53636"/>
<path d="M50.1069 34.5334C50.1069 34.018 49.689 33.6001 49.1736 33.6001H37.0403C36.5248 33.6001 36.1069 34.018 36.1069 34.5334C36.1069 35.0489 36.5248 35.4668 37.0403 35.4668H49.1736C49.689 35.4668 50.1069 35.0489 50.1069 34.5334Z" fill="#B53636"/>
<path d="M50.107 40.1333C50.107 39.6179 49.6891 39.2 49.1737 39.2H40.7737C40.2582 39.2 39.8403 39.6179 39.8403 40.1333C39.8403 40.6487 40.2582 41.0666 40.7737 41.0666H49.1737C49.6891 41.0666 50.107 40.6487 50.107 40.1333Z" fill="#B53636"/>
<path d="M38.907 12.1333C38.907 11.6179 38.489 11.2 37.9736 11.2H30.5069C29.9915 11.2 29.5736 11.6179 29.5736 12.1333C29.5736 12.6487 29.9915 13.0666 30.5069 13.0666H37.9736C38.489 13.0666 38.907 12.6487 38.907 12.1333Z" fill="#B53636"/>
<path d="M50.107 17.7334C50.107 17.218 49.6891 16.8 49.1737 16.8H35.1737C34.6583 16.8 34.2404 17.218 34.2404 17.7334C34.2404 18.2488 34.6583 18.6667 35.1737 18.6667H49.1737C49.6891 18.6667 50.107 18.2488 50.107 17.7334Z" fill="#B53636"/>
<path d="M14.6402 23.3332H21.1736C21.689 23.3332 22.1069 22.9153 22.1069 22.3999C22.1069 21.8845 21.689 21.4666 21.1736 21.4666H14.6402C14.1248 21.4666 13.7069 21.8845 13.7069 22.3999C13.7069 22.9153 14.1248 23.3332 14.6402 23.3332Z" fill="#B53636"/>
<path d="M25.8403 28C25.8403 27.4846 25.4224 27.0667 24.907 27.0667H10.907C10.3915 27.0667 9.97363 27.4846 9.97363 28C9.97363 28.5154 10.3915 28.9333 10.907 28.9333H24.907C25.4224 28.9333 25.8403 28.5154 25.8403 28Z" fill="#B53636"/>
<path d="M21.1736 32.6667H14.6402C14.1248 32.6667 13.7069 33.0847 13.7069 33.6001C13.7069 34.1155 14.1248 34.5334 14.6402 34.5334H21.1736C21.689 34.5334 22.1069 34.1155 22.1069 33.6001C22.1069 33.0847 21.689 32.6667 21.1736 32.6667Z" fill="#B53636"/>
<path d="M24.7465 40.04C27.0229 38.8277 28.9105 36.9966 30.1916 34.7585C30.2654 34.6296 30.3456 34.5047 30.4149 34.3739C30.4509 34.3064 30.4792 34.2367 30.5138 34.1693C30.6555 33.8967 30.7936 33.6242 30.9158 33.3453C31.0383 33.0664 31.1345 32.8012 31.2343 32.5268C31.263 32.4475 31.2995 32.3701 31.3277 32.2898C33.7012 25.3878 30.3743 17.82 23.6842 14.9029C16.9937 11.9857 9.18477 14.6982 5.74311 21.1345C4.65984 23.162 4.09564 25.4266 4.10111 27.7257C4.09245 32.6585 6.68327 37.2309 10.9193 39.7583C15.1553 42.2863 20.4094 42.3952 24.7465 40.0454V40.04ZM12.2865 38.377C11.2706 37.8233 10.34 37.126 9.52292 36.3066C8.95599 35.7402 8.44603 35.1199 7.99987 34.4541C7.7793 34.1242 7.5765 33.7855 7.39011 33.4378C4.581 28.1336 6.06941 21.5725 10.8924 18C15.7154 14.4275 22.4255 14.9161 26.6807 19.1493C30.4491 22.9533 31.2967 28.7702 28.7711 33.4916V33.4993C27.6582 35.5816 25.952 37.2865 23.8693 38.3984C20.2563 40.3613 15.8936 40.3544 12.2865 38.3807V38.377Z" fill="#B53636"/>
<path d="M51.0403 44.8C50.5249 44.8 50.107 45.218 50.107 45.7334V49.4667C50.107 49.9821 49.6891 50.4 49.1736 50.4H45.4403C44.9249 50.4 44.507 50.818 44.507 51.3334C44.507 51.8488 44.9249 52.2667 45.4403 52.2667H49.1736C50.7204 52.2667 51.9736 51.013 51.9736 49.4667V45.7334C51.9736 45.218 51.5557 44.8 51.0403 44.8Z" fill="#B53636"/>
</svg>
