<svg width="54" height="54" viewBox="0 0 54 54" fill="none" xmlns="http://www.w3.org/2000/svg">
<rect width="54" height="54" rx="27" fill="#E24D4D"/>
<path d="M26.9414 12.9375C18.7025 12.9375 12 18.8513 12 26.1211C12 29.1921 13.2154 32.1679 15.4272 34.5265C15.865 36.3315 15.3336 38.2438 14.0153 39.5621C13.464 40.1135 13.8538 41.0625 14.6367 41.0625C17.1413 41.0625 19.5557 40.0815 21.3495 38.3511C23.1245 38.9845 25.0025 39.3047 26.9414 39.3047C35.1803 39.3047 42 33.3909 42 26.1211C42 18.8513 35.1803 12.9375 26.9414 12.9375ZM20.0273 28.7578C18.5734 28.7578 17.3906 27.575 17.3906 26.1211C17.3906 24.6671 18.5734 23.4844 20.0273 23.4844C21.4813 23.4844 22.6641 24.6671 22.6641 26.1211C22.6641 27.575 21.4813 28.7578 20.0273 28.7578ZM27.0586 28.7578C25.6046 28.7578 24.4219 27.575 24.4219 26.1211C24.4219 24.6671 25.6046 23.4844 27.0586 23.4844C28.5125 23.4844 29.6953 24.6671 29.6953 26.1211C29.6953 27.575 28.5125 28.7578 27.0586 28.7578ZM34.0898 28.7578C32.6359 28.7578 31.4531 27.575 31.4531 26.1211C31.4531 24.6671 32.6359 23.4844 34.0898 23.4844C35.5438 23.4844 36.7266 24.6671 36.7266 26.1211C36.7266 27.575 35.5438 28.7578 34.0898 28.7578Z" fill="white"/>
</svg>
