<svg width="38" height="38" viewBox="0 0 38 38" fill="none" xmlns="http://www.w3.org/2000/svg">
<g clip-path="url(#clip0)">
<path d="M34.87 16.5711V5.54906C34.87 5.24944 34.6769 4.98374 34.3919 4.89127L19.4461 0.034172C19.2947 -0.015257 19.1383 -0.00924534 18.9998 0.0410742C18.86 -0.00880004 18.704 -0.0148117 18.5527 0.034172L3.60728 4.89127C3.32221 4.98367 3.12924 5.24892 3.12924 5.54906L3.13013 16.5449C3.12412 16.7057 2.70412 32.6941 18.6422 37.9648C18.7123 37.9885 18.7862 38 18.8597 38H19.1405C19.2141 38 19.288 37.9885 19.358 37.9648C35.2956 32.6941 34.8756 16.7052 34.87 16.5711ZM19.0282 36.6165H18.9714C4.14164 31.6455 4.48987 17.21 4.51229 16.5711V6.05121L18.9797 1.34968C18.9866 1.34753 18.993 1.34493 18.9999 1.34278C19.0059 1.34493 19.0128 1.34753 19.0192 1.34968L33.487 6.05159L33.4879 16.5978C33.4934 16.7474 33.8851 31.6339 19.0282 36.6165Z" fill="#439D55"/>
<path d="M30.5528 7.51459L19.3369 3.74033C19.2398 3.70812 19.1391 3.70033 19.0458 3.70812C18.9521 3.70085 18.8528 3.70812 18.7547 3.74033L7.5401 7.51452C7.25933 7.60952 7.06934 7.87306 7.06934 8.17016L7.07023 16.7585C7.07409 16.8818 7.63473 29.1674 18.7961 33.491C18.8765 33.522 18.9616 33.5375 19.0458 33.5375C19.1301 33.5375 19.2152 33.522 19.2956 33.491C30.4574 29.1674 31.0188 16.8819 31.0235 16.734V8.17016C31.0232 7.87314 30.8336 7.60959 30.5528 7.51459ZM19.0458 32.1033C8.98764 28.0282 8.45624 16.8234 8.45238 16.7344V8.66712L19.0458 5.10185L29.6405 8.66712L29.641 16.7095C29.6363 16.823 29.104 28.0282 19.0458 32.1033Z" fill="#439D55"/>
<path d="M26.9626 13.8923C26.6686 13.6464 26.2322 13.6877 25.9885 13.98L17.9848 23.5662L12.822 18.1446C12.5568 17.8669 12.1205 17.8583 11.8445 18.1201C11.5676 18.3837 11.5569 18.8217 11.82 19.0977L17.5176 25.0812C17.6487 25.2184 17.8297 25.2961 18.0188 25.2961C18.0261 25.2961 18.0335 25.2962 18.0412 25.2953C18.2385 25.2892 18.4234 25.1986 18.5498 25.0476L27.0504 14.866C27.2949 14.5729 27.2558 14.1369 26.9626 13.8923Z" fill="#439D55"/>
</g>
<defs>
<clipPath id="clip0">
<rect width="38" height="38" fill="white"/>
</clipPath>
</defs>
</svg>
