<svg width="64" height="64" viewBox="0 0 64 64" fill="none" xmlns="http://www.w3.org/2000/svg">
<g clip-path="url(#clip0)">
<path d="M45.2442 43.7337L42.0512 42.0463C39.5474 40.5207 36.281 41.3136 34.7554 43.8173C34.7201 43.8752 34.6858 43.9339 34.6527 43.9933L33.199 46.1739C26.3753 41.495 20.4854 35.583 15.832 28.742L18.0126 27.3013C19.5832 26.2369 21.9066 23.8097 19.7908 19.6302L18.2722 16.7098C16.0267 12.5562 12.7169 13.0624 10.9386 13.7504L3.52716 16.6838C1.97964 17.198 0.763431 18.4091 0.243265 19.9547C-0.263434 22.0654 0.0278005 24.289 1.06099 26.198C8.65288 41.1976 20.8416 53.3772 35.8469 60.9579C37.1525 61.6374 38.5942 62.0145 40.0653 62.0612C42.3449 62.0737 44.4017 60.6955 45.2572 58.5826V58.4917L48.2036 51.0543C48.8786 49.2761 49.3848 45.9662 45.2442 43.7337ZM46.4384 50.3534L43.5569 57.7129C43.1647 58.6619 42.4137 59.4177 41.4671 59.8157C39.8638 60.2508 38.1522 60.0117 36.7295 59.1537C22.0789 51.7549 10.177 39.8665 2.76135 25.2245C1.99294 23.7761 1.75849 22.1037 2.09938 20.4999C2.44642 19.5145 3.2416 18.7531 4.24104 18.449L11.6525 15.5156C12.1767 15.3032 12.7355 15.1888 13.3009 15.1781C14.7628 15.2815 16.0353 16.2155 16.5719 17.5794L18.0645 20.4999C18.7784 21.9017 19.4404 23.9784 16.9353 25.6918L13.937 27.6777C13.5198 27.972 13.4009 28.5384 13.6644 28.9757C18.7439 36.6732 25.3266 43.2648 33.0173 48.3545C33.4545 48.618 34.0209 48.4991 34.3152 48.0819L36.3012 45.0836C37.1237 43.4191 39.1398 42.7365 40.8043 43.559C40.9393 43.6256 41.0696 43.7014 41.1945 43.7856L44.3616 45.447C45.7634 46.1999 47.5027 47.5368 46.4384 50.3534Z" fill="#37B14F"/>
<path d="M56.0954 13.4907C55.4853 7.00084 48.7618 1.93872 40.5196 1.93872C31.914 1.93872 24.9438 7.54599 24.9438 14.4383C25.0386 18.1625 26.9296 21.6107 30.019 23.6929V31.3899C30.019 31.9276 30.4547 32.3634 30.9923 32.3635C31.2378 32.3635 31.4743 32.2707 31.6544 32.1038L37.5343 26.7301C38.0015 26.808 38.4558 26.8599 38.9231 26.8989C40.8441 30.9096 45.6077 33.5575 51.0203 33.5575C51.8328 33.5582 52.6442 33.4973 53.4475 33.3758L58.2111 37.737C58.6054 38.1026 59.2212 38.0793 59.5868 37.6852C59.7537 37.5052 59.8465 37.2688 59.8465 37.0231V30.7928C62.3867 29.043 63.9318 26.1796 64.0001 23.0958C64.0001 18.9033 60.846 15.1132 56.0954 13.4907ZM40.3509 25.0038C39.3582 25.0024 38.3677 24.9112 37.3915 24.7312C37.0933 24.6733 36.7852 24.76 36.5608 24.9649L31.9659 29.1703V23.1867C31.9653 22.8639 31.805 22.5627 31.5376 22.3819C28.7633 20.6846 27.02 17.714 26.8908 14.4642C26.8908 8.64928 33.0173 3.91165 40.5456 3.91165C48.0739 3.91165 54.2003 8.64928 54.2003 14.4642C54.1946 15.0762 54.1207 15.6858 53.9797 16.2814C53.3854 18.3504 52.1987 20.2002 50.566 21.6031C47.6564 23.8833 44.0466 25.0851 40.3509 25.0038ZM58.3149 29.4429C58.0475 29.6237 57.8872 29.925 57.8866 30.2477V34.7776L54.408 31.5976C54.2279 31.4306 53.9915 31.338 53.746 31.338H53.5643C52.708 31.4955 51.839 31.5737 50.9684 31.5716C47.1551 31.7092 43.5082 30.0041 41.1686 26.9897C45.1253 26.8445 48.9302 25.4292 52.0197 22.953C53.9607 21.2845 55.3237 19.0446 55.9137 16.554C55.9137 16.2814 56.0305 16.0348 56.0564 15.8011V15.6454C59.7038 17.0342 62.0531 19.9417 62.0531 23.0958C61.9496 25.7042 60.546 28.0875 58.3149 29.4429Z" fill="#37B14F"/>
</g>
<defs>
<clipPath id="clip0">
<rect width="64" height="64" fill="white"/>
</clipPath>
</defs>
</svg>
