<svg width="21" height="22" viewBox="0 0 21 22" fill="none" xmlns="http://www.w3.org/2000/svg">
<g clip-path="url(#clip0)">
<path d="M10.5 0.5C4.71032 0.5 0 5.21032 0 11C0 16.7893 4.71032 21.5 10.5 21.5C16.2893 21.5 21 16.7893 21 11C21 5.21032 16.2901 0.5 10.5 0.5Z" fill="#6E43A8"/>
<g clip-path="url(#clip1)">
<path d="M17.4718 12.6833C17.9193 8.9164 17.2568 6.53827 16.0618 5.46264C14.1331 3.62577 7.61993 3.35327 5.31243 5.54452C4.27618 6.61639 3.91118 8.18952 3.87118 10.137C3.83118 12.0851 3.78368 15.7345 7.1843 16.7245H7.18743L7.1843 18.2364C7.1843 18.2364 7.16118 18.8489 7.55243 18.972C7.99993 19.117 8.20243 18.8327 9.5943 17.1702C11.9218 17.372 13.7093 16.9095 13.9124 16.842C14.3824 16.6845 17.0418 16.3327 17.4718 12.6833Z" fill="white"/>
<path d="M10.6387 6.68555C10.3981 6.68555 10.3981 7.06055 10.6387 7.06367C12.5056 7.07805 14.0431 8.3793 14.06 10.7662C14.06 11.018 14.4287 11.0149 14.4256 10.763H14.425C14.405 8.19117 12.7262 6.69992 10.6387 6.68555Z" fill="#6E43A8"/>
<path d="M13.0943 10.3707C13.0887 10.6194 13.4569 10.6313 13.46 10.3794C13.4906 8.96128 12.6162 7.79315 10.9731 7.67002C10.7325 7.65252 10.7075 8.03065 10.9475 8.04815C12.3725 8.15627 13.1231 9.12878 13.0943 10.3707Z" fill="#6E43A8"/>
<path d="M12.7006 11.9836C12.3919 11.8048 12.0775 11.9161 11.9475 12.0917L11.6756 12.4436C11.5375 12.6223 11.2794 12.5986 11.2794 12.5986C9.39564 12.1004 8.89189 10.1292 8.89189 10.1292C8.89189 10.1292 8.86877 9.86232 9.04127 9.71919L9.38127 9.43794C9.55127 9.30294 9.65877 8.97794 9.48564 8.65857C9.02314 7.82295 8.71251 7.53482 8.55439 7.31357C8.38814 7.10545 8.13814 7.05857 7.87814 7.1992H7.87251C7.33189 7.51545 6.74001 8.10732 6.92939 8.71669C7.25251 9.35919 7.84626 11.4073 9.73877 12.9548C10.6281 13.6867 12.0356 14.4367 12.6331 14.6098L12.6388 14.6186C13.2275 14.8148 13.8 14.1998 14.1056 13.6429V13.6386C14.2413 13.3692 14.1963 13.1142 13.9981 12.9473C13.6469 12.6048 13.1169 12.2267 12.7006 11.9836Z" fill="#6E43A8"/>
<path d="M11.2306 9.06505C11.8312 9.10005 12.1225 9.4138 12.1537 10.0582C12.165 10.3101 12.5306 10.2926 12.5193 10.0407C12.4793 9.19943 12.0406 8.73067 11.2506 8.68692C11.01 8.67255 10.9875 9.05067 11.2306 9.06505Z" fill="#6E43A8"/>
</g>
</g>
<defs>
<clipPath id="clip0">
<rect width="21" height="21" fill="white" transform="translate(0 0.5)"/>
</clipPath>
<clipPath id="clip1">
<rect width="15" height="15" fill="white" transform="translate(3 4)"/>
</clipPath>
</defs>
</svg>
