<svg width="40" height="40" viewBox="0 0 40 40" fill="none" xmlns="http://www.w3.org/2000/svg">
<path d="M20 0C8.97204 0 0 8.97204 0 20C0 31.0271 8.97204 40 20 40C31.0271 40 40 31.0271 40 20C40 8.97204 31.0288 0 20 0Z" fill="#6E43A8"/>
<g clip-path="url(#clip0)">
<path d="M30.3282 21.7529C30.9912 16.1723 30.0097 12.6492 28.2394 11.0556C25.3819 8.33435 15.7329 7.93065 12.3143 11.1769C10.7792 12.7649 10.2384 15.0955 10.1792 17.9807C10.1199 20.8668 10.0495 26.2733 15.0875 27.7399H15.0921L15.0875 29.9797C15.0875 29.9797 15.0532 30.8871 15.6329 31.0696C16.2958 31.2844 16.5958 30.8631 18.6579 28.4001C22.106 28.6992 24.7542 28.014 25.0551 27.914C25.7514 27.6807 29.6912 27.1594 30.3282 21.7529Z" fill="white"/>
<path d="M20.2058 12.8677C19.8494 12.8677 19.8494 13.4232 20.2058 13.4279C22.9716 13.4492 25.2493 15.3769 25.2743 18.913C25.2743 19.2862 25.8206 19.2816 25.816 18.9084H25.8151C25.7854 15.0982 23.2984 12.889 20.2058 12.8677Z" fill="#6E43A8"/>
<path d="M23.8434 18.327C23.8351 18.6955 24.3805 18.7131 24.3851 18.34C24.4305 16.239 23.1351 14.5085 20.7008 14.3261C20.3443 14.3001 20.3073 14.8603 20.6628 14.8863C22.774 15.0464 23.886 16.4872 23.8434 18.327Z" fill="#6E43A8"/>
<path d="M23.2597 20.7168C22.8023 20.452 22.3366 20.6168 22.144 20.877L21.7412 21.3983C21.5366 21.6631 21.1542 21.6279 21.1542 21.6279C18.3634 20.89 17.6171 17.9696 17.6171 17.9696C17.6171 17.9696 17.5829 17.5742 17.8384 17.3622L18.3421 16.9455C18.594 16.7455 18.7532 16.264 18.4967 15.7909C17.8116 14.5529 17.3514 14.1261 17.1171 13.7983C16.8708 13.49 16.5004 13.4205 16.1153 13.6288H16.1069C15.306 14.0974 14.4291 14.9742 14.7097 15.877C15.1884 16.8288 16.068 19.8631 18.8717 22.1557C20.1893 23.2399 22.2745 24.3511 23.1597 24.6075L23.168 24.6205C24.0403 24.9112 24.8884 24.0001 25.3412 23.1751V23.1687C25.5421 22.7696 25.4755 22.3918 25.1819 22.1446C24.6616 21.6372 23.8764 21.077 23.2597 20.7168Z" fill="#6E43A8"/>
<path d="M21.0826 16.3926C21.9724 16.4444 22.4039 16.9092 22.4502 17.8639C22.4668 18.237 23.0085 18.2111 22.9918 17.8379C22.9326 16.5916 22.2826 15.8972 21.1122 15.8324C20.7557 15.8111 20.7224 16.3713 21.0826 16.3926Z" fill="#6E43A8"/>
</g>
<defs>
<clipPath id="clip0">
<rect width="22.2222" height="22.2222" fill="white" transform="translate(8.88867 8.88892)"/>
</clipPath>
</defs>
</svg>
