<svg width="38" height="38" viewBox="0 0 38 38" fill="none" xmlns="http://www.w3.org/2000/svg">
<g clip-path="url(#clip0)">
<path d="M10.1335 30.986H4.4334C4.08347 30.986 3.79993 31.2696 3.79993 31.6192C3.79993 31.9691 4.08347 32.2527 4.4334 32.2527H10.1335C10.4831 32.2527 10.7666 31.9691 10.7666 31.6192C10.7666 31.2696 10.4831 30.986 10.1335 30.986Z" fill="#439D55"/>
<path d="M36.0999 18.3193H25.3332V5.6525C25.3321 4.60387 24.4823 3.75383 23.4334 3.75267H22.7999V1.34085C22.7997 0.965987 22.6335 0.610259 22.3459 0.369628C22.0586 0.128997 21.6791 0.0281059 21.3101 0.0939171L1.15358 3.76282L1.14923 3.76456C0.499817 3.8237 0.00202942 4.36729 0 5.01932V36.6861C0.000869755 37.3851 0.567368 37.9519 1.26665 37.9527H36.0999C37.1488 37.9516 37.9988 37.1015 38 36.0526V20.2194C37.9988 19.1705 37.1488 18.3204 36.0999 18.3193ZM21.5333 1.34085V3.75267H8.28293L21.5333 1.34085ZM1.26665 5.01932H23.4334C23.7831 5.01961 24.0663 5.30286 24.0666 5.6525V18.3193H20.5006C21.3193 15.7944 20.8636 13.0291 19.2783 10.9006C19.2728 10.8898 19.2731 10.8782 19.267 10.8678C19.243 10.8345 19.2157 10.804 19.1853 10.7762C17.6333 8.74446 15.2227 7.55232 12.6659 7.55261C10.1091 7.5529 7.69875 8.74504 6.14711 10.7771C6.11696 10.8046 6.08971 10.8348 6.06593 10.8678C6.05956 10.8782 6.06013 10.8898 6.05463 10.9006C4.26816 13.3025 3.93127 16.487 5.1756 19.2096C6.41992 21.9325 9.04802 23.7616 12.0333 23.9831V28.4527H4.43341C4.08348 28.4527 3.79994 28.7363 3.79994 29.0859C3.79994 29.4358 4.08348 29.7194 4.43341 29.7194H12.0333V36.0526C12.0356 36.2689 12.075 36.4831 12.1501 36.6861H1.26665V5.01932ZM16.8929 18.3193C16.9975 17.6907 17.061 17.0561 17.0834 16.4191H19.5998C19.5395 17.0706 19.3885 17.7099 19.151 18.3193H16.8929ZM17.0834 15.1525C17.0532 14.3236 16.9529 13.4985 16.783 12.6865C17.3788 12.5131 17.9583 12.2881 18.515 12.0136C19.1267 12.9561 19.4995 14.0337 19.6013 15.1525H17.0834ZM12.0333 22.5825C11.2824 22.2152 10.5872 21.226 10.1132 19.8173C10.7475 19.7013 11.3891 19.63 12.0333 19.6036V22.5825ZM12.0333 18.3369C11.2786 18.3656 10.5269 18.4509 9.78499 18.5924C9.63829 17.8763 9.54929 17.1494 9.51913 16.4191H12.0333V18.3369ZM9.51595 15.1525C9.54465 14.4231 9.63336 13.6971 9.78093 12.9819C10.5246 13.1228 11.2772 13.2074 12.0333 13.2353V15.1525H9.51595ZM12.0333 8.98828V11.9683C11.39 11.9411 10.7493 11.8695 10.1158 11.7535C10.5973 10.3381 11.305 9.35908 12.0333 8.98828ZM13.2999 13.2353C14.056 13.2072 14.809 13.1225 15.5523 12.9819C15.7002 13.6968 15.7889 14.4231 15.8173 15.1525H13.2999V13.2353ZM13.2999 11.9683V8.98828C14.0282 9.35908 14.7359 10.3381 15.2175 11.7535C14.584 11.8695 13.9433 11.9411 13.2999 11.9683ZM16.4528 11.4619C16.229 10.7492 15.9147 10.0685 15.5172 9.4362C16.3423 9.80875 17.0871 10.3378 17.7104 10.9942C17.3025 11.1789 16.8824 11.3352 16.4528 11.4613V11.4619ZM8.88045 11.4619C8.45108 11.3354 8.0307 11.1792 7.62308 10.9945C8.24611 10.3378 8.99091 9.80875 9.81601 9.43649C9.41853 10.0685 9.10426 10.7489 8.88045 11.4613V11.4619ZM6.81827 12.0141C7.37491 12.2884 7.95445 12.5137 8.55052 12.6868C8.38063 13.4988 8.28003 14.3236 8.25017 15.1525H5.73224C5.83371 14.0337 6.20654 12.9561 6.81827 12.0136V12.0141ZM8.25278 16.4191C8.28438 17.2492 8.38527 18.0749 8.554 18.8881C7.95358 19.0597 7.36998 19.285 6.80986 19.5607C6.19958 18.617 5.82907 17.5388 5.73021 16.4191H8.25278ZM8.87436 20.1133C9.09818 20.8256 9.4136 21.506 9.81282 22.1375C8.98424 21.7684 8.23654 21.2396 7.61264 20.5815C8.02171 20.3962 8.44325 20.2397 8.87436 20.1133ZM13.9334 18.3193C13.8319 18.3213 13.7308 18.3314 13.631 18.3497C13.5226 18.3436 13.4098 18.3436 13.2999 18.3393V16.4191H15.8167C15.7912 17.057 15.719 17.6922 15.6007 18.3193H13.9334ZM36.7334 36.0526C36.7331 36.4023 36.4495 36.6855 36.0999 36.6861H13.9334C13.5838 36.6855 13.3002 36.4023 13.2999 36.0526V20.2194C13.3002 19.8697 13.5838 19.5862 13.9334 19.5859H36.0999C36.4495 19.5862 36.7331 19.8697 36.7334 20.2194V36.0526Z" fill="#439D55"/>
<path d="M34.8332 20.8526H15.2C14.8501 20.8526 14.5665 21.1361 14.5665 21.486C14.5665 21.8357 14.8501 22.1192 15.2 22.1192H34.8332C35.1831 22.1192 35.4666 21.8357 35.4666 21.486C35.4666 21.1361 35.1831 20.8526 34.8332 20.8526Z" fill="#439D55"/>
<path d="M22.1667 23.3859H15.8332C15.1342 23.3867 14.5674 23.9535 14.5665 24.6525V32.2527C14.5674 32.952 15.1342 33.5185 15.8332 33.5193H22.1667C22.8657 33.5185 23.4325 32.952 23.4333 32.2527V24.6525C23.4325 23.9535 22.8657 23.3867 22.1667 23.3859ZM22.1667 24.6525L22.167 30.0177C21.7628 29.7319 21.3155 29.5118 20.8424 29.3654C21.461 28.4406 21.2981 27.2006 20.4617 26.4668C19.6253 25.733 18.3746 25.733 17.5382 26.4668C16.7018 27.2006 16.5388 28.4406 17.1575 29.3654C16.6844 29.5115 16.2376 29.7316 15.8332 30.0174V24.6525H22.1667ZM18.0499 28.1359C18.0499 27.6114 18.4752 27.1861 18.9999 27.1861C19.5247 27.1861 19.95 27.6114 19.95 28.1359C19.95 28.6606 19.5247 29.0859 18.9999 29.0859C18.4755 29.0853 18.0505 28.6603 18.0499 28.1359ZM15.8332 32.2527C15.8332 31.2229 17.2836 30.3526 18.9999 30.3526C20.7162 30.3526 22.1667 31.2229 22.1667 32.2527H15.8332Z" fill="#439D55"/>
<path d="M34.2001 23.3859H25.9667C25.6168 23.3859 25.3333 23.6694 25.3333 24.0193C25.3333 24.369 25.6168 24.6525 25.9667 24.6525H34.2001C34.5497 24.6525 34.8333 24.369 34.8333 24.0193C34.8333 23.6694 34.5497 23.3859 34.2001 23.3859Z" fill="#439D55"/>
<path d="M26.5999 25.9192H25.9667C25.6168 25.9192 25.3333 26.203 25.3333 26.5526C25.3333 26.9023 25.6168 27.1861 25.9667 27.1861H26.5999C26.9498 27.1861 27.2334 26.9023 27.2334 26.5526C27.2334 26.203 26.9498 25.9192 26.5999 25.9192Z" fill="#439D55"/>
<path d="M34.2001 25.9192H29.1335C28.7835 25.9192 28.5 26.203 28.5 26.5526C28.5 26.9023 28.7835 27.1861 29.1335 27.1861H34.2001C34.5497 27.1861 34.8332 26.9023 34.8332 26.5526C34.8332 26.203 34.5497 25.9192 34.2001 25.9192Z" fill="#439D55"/>
<path d="M26.5999 28.4528H25.9667C25.6168 28.4528 25.3333 28.7363 25.3333 29.0859C25.3333 29.4359 25.6168 29.7194 25.9667 29.7194H26.5999C26.9498 29.7194 27.2334 29.4359 27.2334 29.0859C27.2334 28.7363 26.9498 28.4528 26.5999 28.4528Z" fill="#439D55"/>
<path d="M34.2001 28.4528H29.1335C28.7835 28.4528 28.5 28.7363 28.5 29.0859C28.5 29.4359 28.7835 29.7194 29.1335 29.7194H34.2001C34.5497 29.7194 34.8332 29.4359 34.8332 29.0859C34.8332 28.7363 34.5497 28.4528 34.2001 28.4528Z" fill="#439D55"/>
<path d="M26.5999 30.986H25.9667C25.6168 30.986 25.3333 31.2696 25.3333 31.6192C25.3333 31.9691 25.6168 32.2527 25.9667 32.2527H26.5999C26.9498 32.2527 27.2334 31.9691 27.2334 31.6192C27.2334 31.2696 26.9498 30.986 26.5999 30.986Z" fill="#439D55"/>
<path d="M34.2001 30.986H29.1335C28.7835 30.986 28.5 31.2696 28.5 31.6192C28.5 31.9691 28.7835 32.2527 29.1335 32.2527H34.2001C34.5497 32.2527 34.8332 31.9691 34.8332 31.6192C34.8332 31.2696 34.5497 30.986 34.2001 30.986Z" fill="#439D55"/>
<path d="M26.5999 33.5193H25.9667C25.6168 33.5193 25.3333 33.8029 25.3333 34.1525C25.3333 34.5025 25.6168 34.786 25.9667 34.786H26.5999C26.9498 34.786 27.2334 34.5025 27.2334 34.1525C27.2334 33.8029 26.9498 33.5193 26.5999 33.5193Z" fill="#439D55"/>
<path d="M34.2001 33.5193H29.1335C28.7835 33.5193 28.5 33.8029 28.5 34.1525C28.5 34.5025 28.7835 34.786 29.1335 34.786H34.2001C34.5497 34.786 34.8332 34.5025 34.8332 34.1525C34.8332 33.8029 34.5497 33.5193 34.2001 33.5193Z" fill="#439D55"/>
</g>
<defs>
<clipPath id="clip0">
<rect width="38" height="38" fill="white"/>
</clipPath>
</defs>
</svg>
