<svg width="54" height="64" viewBox="0 0 54 64" fill="none" xmlns="http://www.w3.org/2000/svg">
<path d="M50.52 4.547L17.3253 0.0373349C15.1289 -0.2622 13.0938 1.2736 12.7931 3.4599L12.0691 8.729C11.9912 9.29388 12.3889 9.81489 12.9577 9.89174C13.5229 9.9698 14.05 9.57375 14.1273 9.00826L14.8513 3.73977C14.9974 2.68232 15.9838 1.93772 17.0444 2.08386L50.2391 6.59322C51.3028 6.73845 52.0502 7.71633 51.9048 8.77348L45.3998 56.0994C45.2537 57.1569 44.2655 57.9006 43.2067 57.7553L40.989 57.4543C40.4165 57.3747 39.8967 57.772 39.8194 58.3372C39.7415 58.9021 40.1393 59.4231 40.7075 59.4999L42.9252 59.801C43.109 59.8258 43.2919 59.8382 43.4727 59.8382C45.4521 59.8382 47.1829 58.3813 47.4577 56.3784L53.9627 9.05274C54.2634 6.86704 52.7189 4.84593 50.52 4.547Z" fill="#37B14F"/>
<path d="M37.5282 8.23145H4.0249C1.80535 8.23145 0 10.0268 0 12.2328V59.9987C0 62.2053 1.80595 64.0001 4.0249 64.0001H37.5282C39.7471 64.0001 41.5525 62.2053 41.5531 59.9987V12.2328C41.5531 10.0262 39.7471 8.23145 37.5282 8.23145ZM39.4756 59.999C39.4756 61.0664 38.6019 61.9348 37.5285 61.9348H4.0249C2.95119 61.9348 2.07773 61.0661 2.07773 59.999V12.2331C2.07773 11.1657 2.95149 10.2973 4.0249 10.2973H37.5282C38.6019 10.2973 39.4753 11.166 39.4753 12.2331V59.999H39.4756Z" fill="#37B14F"/>
<path d="M31.1644 50.5742H9.34926C8.77588 50.5742 8.31055 51.0368 8.31055 51.6069C8.31055 52.1769 8.77588 52.6395 9.34926 52.6395H31.1644C31.7383 52.6395 32.2031 52.1769 32.2031 51.6069C32.2031 51.0368 31.738 50.5742 31.1644 50.5742Z" fill="#37B14F"/>
<path d="M20.7763 55.7378H9.34926C8.77588 55.7378 8.31055 56.2004 8.31055 56.7704C8.31055 57.3405 8.77588 57.8031 9.34926 57.8031H20.7763C21.3503 57.8031 21.815 57.3405 21.815 56.7704C21.815 56.2004 21.3497 55.7378 20.7763 55.7378Z" fill="#37B14F"/>
<path d="M37.397 18.5591H4.15517C3.58179 18.5591 3.11646 19.0217 3.11646 19.5917V40.2466C3.11646 40.8167 3.58179 41.2793 4.15517 41.2793H37.3973C37.9713 41.2793 38.436 40.8167 38.436 40.2466V19.5917C38.436 19.0217 37.9707 18.5591 37.397 18.5591ZM36.3583 39.2137H5.19388V20.6244H36.3583V39.2137Z" fill="#37B14F"/>
<path d="M18.6984 18.5591H4.15517C3.58179 18.5591 3.11646 19.0217 3.11646 19.5917V31.9846C3.11646 32.5546 3.58179 33.0173 4.15517 33.0173H18.6987C19.2726 33.0173 19.7374 32.5546 19.7374 31.9846V19.5917C19.7374 19.0217 19.272 18.5591 18.6984 18.5591ZM17.6596 30.952H5.19388V20.6244H17.6596V30.952Z" fill="#37B14F"/>
<path d="M14.7104 24.7986C14.5714 24.3732 14.173 24.0848 13.7225 24.0848H12.9206C12.378 24.0848 11.9005 23.7399 11.7328 23.2268L11.485 22.4689C11.346 22.0435 10.947 21.7551 10.4972 21.7551C10.0473 21.7551 9.64835 22.0432 9.50926 22.4689L9.26153 23.2274C9.09384 23.7405 8.61633 24.0855 8.07369 24.0855H7.27145C6.82164 24.0855 6.42265 24.3735 6.28357 24.7992C6.14448 25.2246 6.29696 25.6908 6.66125 25.9538L7.3101 26.4221C7.74896 26.7392 7.93126 27.2968 7.76357 27.8103L7.51584 28.5682C7.37706 28.9936 7.52923 29.4598 7.89352 29.7228C8.25751 29.9857 8.75115 29.9857 9.11454 29.7228L9.76369 29.2538C10.2038 28.9361 10.7933 28.9373 11.2321 29.2538L11.881 29.7222C12.0627 29.8538 12.2769 29.9194 12.4912 29.9194C12.7051 29.9194 12.9197 29.8535 13.1011 29.7222C13.4651 29.4592 13.6179 28.993 13.4788 28.5676L13.2304 27.8097C13.063 27.2965 13.2453 26.7386 13.6845 26.4215L14.3334 25.9532C14.6967 25.6902 14.8495 25.224 14.7104 24.7986ZM11.1171 27.0064C10.912 26.9683 10.7047 26.9486 10.4968 26.9486C10.2896 26.9486 10.0817 26.9683 9.8766 27.0064C9.82456 26.5952 9.6943 26.1976 9.49374 25.8343C9.87082 25.6576 10.2117 25.4119 10.4968 25.1099C10.7826 25.4119 11.1229 25.6579 11.5 25.8343C11.2994 26.1979 11.1694 26.5955 11.1171 27.0064Z" fill="#37B14F"/>
<path d="M37.3975 22.6899H18.6989C18.1255 22.6899 17.6602 23.1526 17.6602 23.7226C17.6602 24.2926 18.1255 24.7552 18.6989 24.7552H37.3975C37.9715 24.7552 38.4362 24.2926 38.4362 23.7226C38.4365 23.1526 37.9712 22.6899 37.3975 22.6899Z" fill="#37B14F"/>
<path d="M37.3975 26.8213H18.6989C18.1255 26.8213 17.6602 27.2839 17.6602 27.8539C17.6602 28.424 18.1255 28.8866 18.6989 28.8866H37.3975C37.9715 28.8866 38.4362 28.424 38.4362 27.8539C38.4362 27.2839 37.9712 26.8213 37.3975 26.8213Z" fill="#37B14F"/>
<path d="M37.3975 30.9521H18.6989C18.1255 30.9521 17.6602 31.4148 17.6602 31.9848C17.6602 32.5548 18.1255 33.0174 18.6989 33.0174H37.3975C37.9715 33.0174 38.4362 32.5548 38.4362 31.9848C38.4362 31.4148 37.9712 30.9521 37.3975 30.9521Z" fill="#37B14F"/>
<path d="M37.397 35.083H4.15517C3.58179 35.083 3.11646 35.5456 3.11646 36.1156C3.11646 36.6857 3.58179 37.1483 4.15517 37.1483H37.3973C37.9713 37.1483 38.436 36.6857 38.436 36.1156C38.436 35.5456 37.9707 35.083 37.397 35.083Z" fill="#37B14F"/>
</svg>
