<svg width="40" height="39" viewBox="0 0 40 39" fill="none" xmlns="http://www.w3.org/2000/svg">
<path d="M20 0C8.97204 0 0 8.74774 0 19.5C0 30.2515 8.97204 39 20 39C31.0271 39 40 30.2515 40 19.5C40 8.74774 31.0288 0 20 0Z" fill="#39BF4B"/>
<path fill-rule="evenodd" clip-rule="evenodd" d="M11.0942 24.2314L9.56543 29.6739L15.2778 28.2135C16.8516 29.0498 18.6236 29.4912 20.427 29.4917H20.4318C26.3704 29.4917 31.2046 24.78 31.2071 18.9888C31.2082 16.1825 30.0884 13.5437 28.0538 11.5586C26.0196 9.57334 23.314 8.47954 20.4314 8.47827C14.492 8.47827 9.65813 13.1896 9.65566 18.9806C9.65506 20.8314 10.151 22.6385 11.0942 24.2314ZM17.0146 13.9592C17.2134 13.9672 17.4333 13.9762 17.6422 14.4291C17.785 14.7386 18.0252 15.3156 18.2166 15.7754C18.3578 16.1144 18.4724 16.3898 18.502 16.4475C18.5717 16.5835 18.6182 16.7423 18.5252 16.9239C18.5113 16.9511 18.4984 16.9767 18.4861 17.0012C18.4162 17.1402 18.3649 17.2423 18.2466 17.3773C18.2002 17.4301 18.1523 17.487 18.1043 17.5439C18.0081 17.658 17.9118 17.7722 17.8282 17.8535C17.6883 17.9891 17.543 18.1364 17.7057 18.4084C17.8684 18.6806 18.4282 19.5707 19.2573 20.2914C20.148 21.0657 20.9218 21.3933 21.3147 21.5596C21.3919 21.5922 21.4543 21.6187 21.5001 21.6411C21.7791 21.7771 21.9418 21.7544 22.1045 21.5727C22.2672 21.3914 22.8014 20.779 22.9874 20.5071C23.1733 20.2348 23.3593 20.2801 23.615 20.3708C23.8707 20.4614 25.2418 21.1194 25.5207 21.2554C25.5752 21.2819 25.626 21.3058 25.6732 21.328C25.8678 21.4196 25.9992 21.4814 26.0554 21.5727C26.1251 21.6864 26.1251 22.2306 25.8927 22.8655C25.6602 23.5005 24.5215 24.1128 24.0101 24.1582C23.9609 24.1625 23.912 24.1681 23.8617 24.1739C23.3891 24.2281 22.7926 24.2965 20.6633 23.4778C18.0434 22.4705 16.3159 19.9742 15.9589 19.4583C15.9297 19.416 15.9096 19.387 15.899 19.3733L15.896 19.3693C15.7458 19.1736 14.7602 17.8895 14.7602 16.5609C14.7602 15.3086 15.3915 14.6522 15.682 14.3501C15.7019 14.3295 15.7201 14.3105 15.7365 14.2931C15.992 14.021 16.2942 13.9529 16.4802 13.9529C16.4903 13.9529 16.5005 13.9529 16.5106 13.9529C16.6862 13.9528 16.861 13.9528 17.0146 13.9592Z" fill="white"/>
</svg>
