<svg width="24" height="24" xmlns="http://www.w3.org/2000/svg">

 <g>
  <title>Layer 1</title>
  <ellipse stroke-width="0" ry="8.87498" rx="10.12498" id="svg_3" cy="12.125" cx="12.25" stroke="#000" fill="#ffffff"/>
  <path stroke="null" id="svg_2" fill="#D80808" d="m12,0c-6.62719,0 -12,5.37256 -12,12c0,6.6274 5.37281,12 12,12c6.6272,0 12,-5.3726 12,-12c0,-6.62744 -5.3728,-12 -12,-12zm8.1762,16.0055c-0.2077,0.9011 -0.9448,1.5657 -1.8319,1.6646c-2.1009,0.235 -4.2271,0.2362 -6.3448,0.235c-2.11764,0.0012 -4.24437,0 -6.34581,-0.235c-0.88708,-0.0989 -1.62365,-0.7635 -1.83088,-1.6646c-0.29536,-1.2836 -0.29536,-2.6843 -0.29536,-4.0055c0,-1.3212 0.00343,-2.72237 0.2988,-4.00548c0.20722,-0.90108 0.9438,-1.56596 1.83088,-1.66515c2.10144,-0.23472 4.22817,-0.23595 6.34577,-0.23472c2.1172,-0.00123 4.2439,0 6.3446,0.23472c0.8876,0.09919 1.6247,0.76383 1.8319,1.66515c0.2954,1.28335 0.2929,2.68428 0.2929,4.00548c0,1.3212 -0.0007,2.7221 -0.2961,4.0055z"/>
  <path id="svg_1" fill="#D80808" d="m9.81323,14.6301c1.80067,-0.9337 3.58567,-1.8589 5.38707,-2.7931c-1.8068,-0.9428 -3.5913,-1.87334 -5.38707,-2.81051c0,1.87431 0,3.72951 0,5.60361z"/>
 </g>
</svg>